{
  "title" : "",
  "description" : "",
  "author" : "",
  "targetLoudness" : -18.0,
  "shouldApplyLoudnessNormalization" : true,
  "videoFormatFrameRate" : 30,
  "audioFormatSampleRate" : 44100,
  "width" : 1280.0,
  "height" : 770.0,
  "version" : "5.0",
  "editRate" : 30,
  "authoringClientName" :  {
    "name" : "Camtasia",
    "platform" : "Windows",
    "version" : "21.0"
  },
  "sourceBin" : [
    {
      "id" : 1,
      "src" : "fiverr_banner.png",
      "rect" : [0, 0, 1280, 769],
      "lastMod" : "20230404T164756",
      "loudnessNormalization" : true,
      "sourceTracks" : [
        {
          "range" : [0, 1],
          "type" : 1,
          "editRate" : 10000000,
          "trackRect" : [0, 0, 1280, 769],
          "sampleRate" : 0,
          "bitDepth" : 32,
          "numChannels" : 0,
          "integratedLUFS" : 100.0,
          "peakLevel" : -1.0,
          "metaData" : ""
        }
      ],
      "metadata" : {
        "timeAdded" : "20230402T133756.732511"
      }
    },
    {
      "id" : 2,
      "src" : "1.mp4",
      "rect" : [0, 0, 1080, 1920],
      "lastMod" : "20230404T164756",
      "loudnessNormalization" : true,
      "sourceTracks" : [
        {
          "range" : [0, 7900],
          "type" : 0,
          "editRate" : 1000,
          "trackRect" : [0, 0, 1080, 1920],
          "sampleRate" : 30,
          "bitDepth" : 24,
          "numChannels" : 0,
          "integratedLUFS" : 100.0,
          "peakLevel" : -1.0,
          "metaData" : ""
        }
      ],
      "metadata" : {
        "timeAdded" : "20230402T133846.039087"
      }
    },
    {
      "id" : 3,
      "src" : "fiverr_banner_no_phone.png",
      "rect" : [0, 0, 1280, 769],
      "lastMod" : "20230404T164756",
      "loudnessNormalization" : true,
      "sourceTracks" : [
        {
          "range" : [0, 1],
          "type" : 1,
          "editRate" : 10000000,
          "trackRect" : [0, 0, 1280, 769],
          "sampleRate" : 0,
          "bitDepth" : 32,
          "numChannels" : 0,
          "integratedLUFS" : 100.0,
          "peakLevel" : -1.0,
          "metaData" : ""
        }
      ],
      "metadata" : {
        "timeAdded" : "20230402T134025.135559"
      }
    },
    {
      "id" : 4,
      "src" : "phone mockp.png",
      "rect" : [0, 0, 345, 715],
      "lastMod" : "20230404T164756",
      "loudnessNormalization" : true,
      "sourceTracks" : [
        {
          "range" : [0, 1],
          "type" : 1,
          "editRate" : 10000000,
          "trackRect" : [0, 0, 345, 715],
          "sampleRate" : 0,
          "bitDepth" : 32,
          "numChannels" : 0,
          "integratedLUFS" : 100.0,
          "peakLevel" : -1.0,
          "metaData" : ""
        }
      ],
      "metadata" : {
        "timeAdded" : "20230402T134122.413603"
      }
    },
    {
      "id" : 5,
      "src" : "free-sample.png",
      "rect" : [0, 0, 347, 202],
      "lastMod" : "20230404T164756",
      "loudnessNormalization" : true,
      "sourceTracks" : [
        {
          "range" : [0, 1],
          "type" : 1,
          "editRate" : 10000000,
          "trackRect" : [0, 0, 347, 202],
          "sampleRate" : 0,
          "bitDepth" : 32,
          "numChannels" : 0,
          "integratedLUFS" : 100.0,
          "peakLevel" : -1.0,
          "metaData" : ""
        }
      ],
      "metadata" : {
        "timeAdded" : "20230402T134824.735976"
      }
    },
    {
      "id" : 6,
      "src" : "1-1Corinthians1614_10_26_7.mp4",
      "rect" : [0, 0, 1080, 1920],
      "lastMod" : "20230404T175044",
      "loudnessNormalization" : true,
      "sourceTracks" : [
        {
          "range" : [0, 23709],
          "type" : 0,
          "editRate" : 1000,
          "trackRect" : [0, 0, 1080, 1920],
          "sampleRate" : "120001/5000",
          "bitDepth" : 24,
          "numChannels" : 0,
          "integratedLUFS" : 100.0,
          "peakLevel" : -1.0,
          "metaData" : ""
        },
        {
          "range" : [0, 23694],
          "type" : 2,
          "editRate" : 1000,
          "trackRect" : [0, 0, 0, 0],
          "sampleRate" : 44100,
          "bitDepth" : 16,
          "numChannels" : 2,
          "integratedLUFS" : 100.0,
          "peakLevel" : -1.0,
          "metaData" : ""
        }
      ],
      "metadata" : {
        "timeAdded" : "20230404T175227.994743"
      }
    },
    {
      "id" : 7,
      "src" : "2-John316_3_9_19.mp4",
      "rect" : [0, 0, 1046, 1862],
      "lastMod" : "20230404T175057",
      "loudnessNormalization" : true,
      "sourceTracks" : [
        {
          "range" : [0, 30084],
          "type" : 0,
          "editRate" : 1000,
          "trackRect" : [0, 0, 1046, 1862],
          "sampleRate" : "120001/5000",
          "bitDepth" : 24,
          "numChannels" : 0,
          "integratedLUFS" : 100.0,
          "peakLevel" : -1.0,
          "metaData" : ""
        },
        {
          "range" : [0, 30067],
          "type" : 2,
          "editRate" : 1000,
          "trackRect" : [0, 0, 0, 0],
          "sampleRate" : 44100,
          "bitDepth" : 16,
          "numChannels" : 2,
          "integratedLUFS" : 100.0,
          "peakLevel" : -1.0,
          "metaData" : ""
        }
      ],
      "metadata" : {
        "timeAdded" : "20230404T175832.498853"
      }
    },
    {
      "id" : 8,
      "src" : "3-1John48_44_46_8.mp4",
      "rect" : [0, 0, 1080, 1920],
      "lastMod" : "20230404T175108",
      "loudnessNormalization" : true,
      "sourceTracks" : [
        {
          "range" : [0, 22125],
          "type" : 0,
          "editRate" : 1000,
          "trackRect" : [0, 0, 1080, 1920],
          "sampleRate" : 24,
          "bitDepth" : 24,
          "numChannels" : 0,
          "integratedLUFS" : 100.0,
          "peakLevel" : -1.0,
          "metaData" : ""
        },
        {
          "range" : [0, 22152],
          "type" : 2,
          "editRate" : 1000,
          "trackRect" : [0, 0, 0, 0],
          "sampleRate" : 44100,
          "bitDepth" : 16,
          "numChannels" : 2,
          "integratedLUFS" : 100.0,
          "peakLevel" : -1.0,
          "metaData" : ""
        }
      ],
      "metadata" : {
        "timeAdded" : "20230404T180431.183435"
      }
    },
    {
      "id" : 9,
      "src" : "yellow_background.png",
      "rect" : [0, 0, 1280, 769],
      "lastMod" : "20230404T180804",
      "loudnessNormalization" : true,
      "sourceTracks" : [
        {
          "range" : [0, 1],
          "type" : 1,
          "editRate" : 10000000,
          "trackRect" : [0, 0, 1280, 769],
          "sampleRate" : 0,
          "bitDepth" : 24,
          "numChannels" : 0,
          "integratedLUFS" : 100.0,
          "peakLevel" : -1.0,
          "metaData" : ""
        }
      ],
      "metadata" : {
        "timeAdded" : "20230404T180820.296638"
      }
    },
    {
      "id" : 10,
      "src" : "4-1Peter48_24_21_12.mp4",
      "rect" : [0, 0, 1080, 1920],
      "lastMod" : "20230404T175113",
      "loudnessNormalization" : true,
      "sourceTracks" : [
        {
          "range" : [0, 9834],
          "type" : 0,
          "editRate" : 1000,
          "trackRect" : [0, 0, 1080, 1920],
          "sampleRate" : "240007/10000",
          "bitDepth" : 24,
          "numChannels" : 0,
          "integratedLUFS" : 100.0,
          "peakLevel" : -1.0,
          "metaData" : ""
        },
        {
          "range" : [0, 9823],
          "type" : 2,
          "editRate" : 1000,
          "trackRect" : [0, 0, 0, 0],
          "sampleRate" : 44100,
          "bitDepth" : 16,
          "numChannels" : 2,
          "integratedLUFS" : 100.0,
          "peakLevel" : -1.0,
          "metaData" : ""
        }
      ],
      "metadata" : {
        "timeAdded" : "20230404T181233.250997"
      }
    },
    {
      "id" : 11,
      "src" : "5-Colossians314_22_8_1.mp4",
      "rect" : [0, 0, 1080, 1920],
      "lastMod" : "20230404T175123",
      "loudnessNormalization" : true,
      "sourceTracks" : [
        {
          "range" : [0, 22250],
          "type" : 0,
          "editRate" : 1000,
          "trackRect" : [0, 0, 1080, 1920],
          "sampleRate" : 24,
          "bitDepth" : 24,
          "numChannels" : 0,
          "integratedLUFS" : 100.0,
          "peakLevel" : -1.0,
          "metaData" : ""
        },
        {
          "range" : [0, 22257],
          "type" : 2,
          "editRate" : 1000,
          "trackRect" : [0, 0, 0, 0],
          "sampleRate" : 44100,
          "bitDepth" : 16,
          "numChannels" : 2,
          "integratedLUFS" : 100.0,
          "peakLevel" : -1.0,
          "metaData" : ""
        }
      ],
      "metadata" : {
        "timeAdded" : "20230404T181453.274400"
      }
    },
    {
      "id" : 12,
      "src" : "7-John1513_36_12_2.mp4",
      "rect" : [0, 0, 1080, 1920],
      "lastMod" : "20230404T175144",
      "loudnessNormalization" : true,
      "sourceTracks" : [
        {
          "range" : [0, 19625],
          "type" : 0,
          "editRate" : 1000,
          "trackRect" : [0, 0, 1080, 1920],
          "sampleRate" : 24,
          "bitDepth" : 24,
          "numChannels" : 0,
          "integratedLUFS" : 100.0,
          "peakLevel" : -1.0,
          "metaData" : ""
        },
        {
          "range" : [0, 19618],
          "type" : 2,
          "editRate" : 1000,
          "trackRect" : [0, 0, 0, 0],
          "sampleRate" : 44100,
          "bitDepth" : 16,
          "numChannels" : 2,
          "integratedLUFS" : 100.0,
          "peakLevel" : -1.0,
          "metaData" : ""
        }
      ],
      "metadata" : {
        "timeAdded" : "20230404T181847.888631"
      }
    },
    {
      "id" : 13,
      "src" : "10-Proverbs1012_23_43_11.mp4",
      "rect" : [0, 0, 1080, 1920],
      "lastMod" : "20230404T175211",
      "loudnessNormalization" : true,
      "sourceTracks" : [
        {
          "range" : [0, 15500],
          "type" : 0,
          "editRate" : 1000,
          "trackRect" : [0, 0, 1080, 1920],
          "sampleRate" : 24,
          "bitDepth" : 24,
          "numChannels" : 0,
          "integratedLUFS" : 100.0,
          "peakLevel" : -1.0,
          "metaData" : ""
        },
        {
          "range" : [0, 15491],
          "type" : 2,
          "editRate" : 1000,
          "trackRect" : [0, 0, 0, 0],
          "sampleRate" : 44100,
          "bitDepth" : 16,
          "numChannels" : 2,
          "integratedLUFS" : 100.0,
          "peakLevel" : -1.0,
          "metaData" : ""
        }
      ],
      "metadata" : {
        "timeAdded" : "20230404T182132.883570"
      }
    },
    {
      "id" : 14,
      "src" : "54-John1334_20_15_15.mp4",
      "rect" : [0, 0, 1080, 1920],
      "lastMod" : "20230404T175918",
      "loudnessNormalization" : true,
      "sourceTracks" : [
        {
          "range" : [0, 17709],
          "type" : 0,
          "editRate" : 1000,
          "trackRect" : [0, 0, 1080, 1920],
          "sampleRate" : "120003/5000",
          "bitDepth" : 24,
          "numChannels" : 0,
          "integratedLUFS" : 100.0,
          "peakLevel" : -1.0,
          "metaData" : ""
        },
        {
          "range" : [0, 17685],
          "type" : 2,
          "editRate" : 1000,
          "trackRect" : [0, 0, 0, 0],
          "sampleRate" : 44100,
          "bitDepth" : 16,
          "numChannels" : 2,
          "integratedLUFS" : 100.0,
          "peakLevel" : -1.0,
          "metaData" : ""
        }
      ],
      "metadata" : {
        "timeAdded" : "20230404T182225.445610"
      }
    },
    {
      "id" : 15,
      "src" : "77-1Corinthians134_37_2_2.mp4",
      "rect" : [0, 0, 1080, 1920],
      "lastMod" : "20230404T180255",
      "loudnessNormalization" : true,
      "sourceTracks" : [
        {
          "range" : [0, 11417],
          "type" : 0,
          "editRate" : 1000,
          "trackRect" : [0, 0, 1080, 1920],
          "sampleRate" : "15001/625",
          "bitDepth" : 24,
          "numChannels" : 0,
          "integratedLUFS" : 100.0,
          "peakLevel" : -1.0,
          "metaData" : ""
        },
        {
          "range" : [0, 11416],
          "type" : 2,
          "editRate" : 1000,
          "trackRect" : [0, 0, 0, 0],
          "sampleRate" : 44100,
          "bitDepth" : 16,
          "numChannels" : 2,
          "integratedLUFS" : 100.0,
          "peakLevel" : -1.0,
          "metaData" : ""
        }
      ],
      "metadata" : {
        "timeAdded" : "20230404T182620.634753"
      }
    },
    {
      "id" : 16,
      "src" : "97-Ephesians52_28_47_21.mp4",
      "rect" : [0, 0, 1080, 1920],
      "lastMod" : "20230404T180609",
      "loudnessNormalization" : true,
      "sourceTracks" : [
        {
          "range" : [0, 20625],
          "type" : 0,
          "editRate" : 1000,
          "trackRect" : [0, 0, 1080, 1920],
          "sampleRate" : 24,
          "bitDepth" : 24,
          "numChannels" : 0,
          "integratedLUFS" : 100.0,
          "peakLevel" : -1.0,
          "metaData" : ""
        },
        {
          "range" : [0, 20611],
          "type" : 2,
          "editRate" : 1000,
          "trackRect" : [0, 0, 0, 0],
          "sampleRate" : 44100,
          "bitDepth" : 16,
          "numChannels" : 2,
          "integratedLUFS" : 100.0,
          "peakLevel" : -1.0,
          "metaData" : ""
        }
      ],
      "metadata" : {
        "timeAdded" : "20230404T182817.283732"
      }
    },
    {
      "id" : 17,
      "src" : "19-John1415_42_25_7.mp4",
      "rect" : [0, 0, 1080, 1920],
      "lastMod" : "20230404T175336",
      "loudnessNormalization" : true,
      "sourceTracks" : [
        {
          "range" : [0, 20834],
          "type" : 0,
          "editRate" : 1000,
          "trackRect" : [0, 0, 1080, 1920],
          "sampleRate" : "120001/5000",
          "bitDepth" : 24,
          "numChannels" : 0,
          "integratedLUFS" : 100.0,
          "peakLevel" : -1.0,
          "metaData" : ""
        },
        {
          "range" : [0, 20820],
          "type" : 2,
          "editRate" : 1000,
          "trackRect" : [0, 0, 0, 0],
          "sampleRate" : 44100,
          "bitDepth" : 16,
          "numChannels" : 2,
          "integratedLUFS" : 100.0,
          "peakLevel" : -1.0,
          "metaData" : ""
        }
      ],
      "metadata" : {
        "timeAdded" : "20230404T183000.926697"
      }
    },
    {
      "id" : 18,
      "src" : "Capture.PNG",
      "rect" : [0, 0, 942, 549],
      "lastMod" : "20230404T201905",
      "loudnessNormalization" : true,
      "sourceTracks" : [
        {
          "range" : [0, 1],
          "type" : 1,
          "editRate" : 10000000,
          "trackRect" : [0, 0, 942, 549],
          "sampleRate" : 0,
          "bitDepth" : 32,
          "numChannels" : 0,
          "integratedLUFS" : 100.0,
          "peakLevel" : -1.0,
          "metaData" : ""
        }
      ],
      "metadata" : {
        "timeAdded" : "20230404T201913.432395"
      }
    }
  ],
  "timeline" : {
    "id" : 19,
    "sceneTrack" : {
      "scenes" : [
        {
          "csml" : {
            "tracks" : [
              {
                "trackIndex" : 0,
                "medias" : [
                  {
                    "id" : 20,
                    "_type" : "IMFile",
                    "src" : 3,
                    "trackNumber" : 0,
                    "trimStartSum" : 0,
                    "attributes" : {
                      "ident" : "fiverr_banner_no_phone"
                    },
                    "parameters" : {
                      "translation1" : -0.5,
                      "sourceCrop0" : 0.0,
                      "sourceCrop1" : 0.0,
                      "sourceCrop2" : 0.0,
                      "sourceCrop3" : 0.0,
                      "geometryCrop0" : 0.0,
                      "geometryCrop1" : 0.0,
                      "geometryCrop2" : 0.0,
                      "geometryCrop3" : 0.0
                    },
                    "effects" : [

                    ],
                    "start" : 0,
                    "duration" : 928,
                    "mediaStart" : 0,
                    "mediaDuration" : 1,
                    "scalar" : 1,
                    "metadata" : {
                      "clipSpeedAttribute" : false,
                      "default-height" : 769.0,
                      "default-scale0" : 1.0,
                      "default-scale1" : 1.0,
                      "default-translation0" : 0.0,
                      "default-translation1" : -0.5,
                      "default-width" : 1280.0
                    },
                    "animationTracks" : {

                    }
                  }
                ]
              },
              {
                "trackIndex" : 1,
                "medias" : [
                  {
                    "id" : 21,
                    "_type" : "UnifiedMedia",
                    "video" : 
                        {
                          "id" : 22,
                          "_type" : "VMFile",
                          "src" : 6,
                          "trackNumber" : 0,
                          "attributes" : {
                            "ident" : "1-1Corinthians1614_10_26_7"
                          },
                          "parameters" : {
                            "translation0" : {
                              "type" : "double",
                              "defaultValue" : -421.585172915439,
                              "keyframes" : [
                                {
                                  "endTime" : 121,
                                  "time" : 101,
                                  "value" : -421.585172915439,
                                  "duration" : 20
                                }
                              ]
                            },
                            "translation1" : {
                              "type" : "double",
                              "defaultValue" : 0.418132716049223,
                              "keyframes" : [
                                {
                                  "endTime" : 121,
                                  "time" : 101,
                                  "value" : 652.25598889107,
                                  "duration" : 20
                                }
                              ]
                            },
                            "scale0" : 0.339155543983755,
                            "scale1" : 0.339155543983755,
                            "sourceCrop0" : 0.0,
                            "sourceCrop1" : 0.0,
                            "sourceCrop2" : 0.0,
                            "sourceCrop3" : 0.0,
                            "geometryCrop0" : 0.0,
                            "geometryCrop1" : 0.0,
                            "geometryCrop2" : 0.0,
                            "geometryCrop3" : 0.0
                          },
                          "effects" : [
                              {
                                "effectName" : "RoundCorners",
                                "bypassed" : true,
                                "category" : "categoryVisualEffects",
                                "parameters" : {
                                  "bottom-left" : 1.0,
                                  "bottom-right" : 1.0,
                                  "radius" : 90.0,
                                  "top-left" : 1.0,
                                  "top-right" : 1.0
                                },
                                "metadata" : {
                                  "default-RoundCorners_radius" : 20.0,
                                  "effectIndex" : "0",
                                  "presetName" : "Corner Rounding"
                                }
                              }
                          ],
                          "start" : 0,
                          "duration" : 121,
                          "mediaStart" : 0,
                          "mediaDuration" : 121,
                          "scalar" : 1,
                          "animationTracks" : {
                            "visual" : [
                              {
                                "endTime" : 121,
                                "duration" : 20,
                                "range" : [ 101, 20]
                              }
                            ]
                          }
                        },
                    "audio" : 
                        {
                          "id" : 23,
                          "_type" : "AMFile",
                          "src" : 6,
                          "trackNumber" : 1,
                          "attributes" : {
                            "ident" : "",
                            "gain" : 1.0,
                            "mixToMono" : false,
                            "loudnessNormalization" : true,
                            "sourceFileOffset" : 0
                          },
                            "channelNumber" : "0,1",
                          "parameters" : {
                            "volume" : {
                              "type" : "double",
                              "keyframes" : [
                                {
                                  "endTime" : 0,
                                  "time" : 0,
                                  "value" : 1.0,
                                  "duration" : 0
                                },
                                {
                                  "endTime" : 101,
                                  "time" : 101,
                                  "value" : 0.999999999999996,
                                  "duration" : 0
                                },
                                {
                                  "endTime" : 121,
                                  "time" : 121,
                                  "value" : 0.0,
                                  "duration" : 0
                                },
                                {
                                  "endTime" : 122,
                                  "time" : 122,
                                  "value" : 1.0,
                                  "duration" : 0
                                }
                              ]
                            }
                          },
                          "effects" : [

                          ],
                          "start" : 0,
                          "duration" : 121,
                          "mediaStart" : 0,
                          "mediaDuration" : 121,
                          "scalar" : 1,
                          "animationTracks" : {

                          }
                        }
,
                    "start" : 0,
                    "duration" : 121,
                    "mediaStart" : 0,
                    "mediaDuration" : 711,
                    "scalar" : 1,
                    "metadata" : {
                      "clipSpeedAttribute" : false,
                      "default-height" : 651.17864444881,
                      "default-translation0" : -421.585172915439,
                      "default-translation1" : -0.581867283950777,
                      "default-width" : 366.287987502455
                    }
                  },
                  {
                    "id" : 24,
                    "_type" : "UnifiedMedia",
                    "video" : 
                        {
                          "id" : 25,
                          "_type" : "VMFile",
                          "src" : 8,
                          "trackNumber" : 0,
                          "attributes" : {
                            "ident" : "3-1John48_44_46_8"
                          },
                          "parameters" : {
                            "translation0" : {
                              "type" : "double",
                              "defaultValue" : -421.825605417081,
                              "interp" : "eioe",
                              "keyframes" : [
                                {
                                  "endTime" : 19,
                                  "time" : 0,
                                  "value" : -421.585172915439,
                                  "duration" : 19
                                },
                                {
                                  "endTime" : 121,
                                  "time" : 101,
                                  "value" : -421.585172915439,
                                  "duration" : 20
                                }
                              ]
                            },
                            "translation1" : {
                              "type" : "double",
                              "defaultValue" : -648.915200617284,
                              "interp" : "eioe",
                              "keyframes" : [
                                {
                                  "endTime" : 19,
                                  "time" : 0,
                                  "value" : 0.0,
                                  "duration" : 19
                                },
                                {
                                  "endTime" : 121,
                                  "time" : 101,
                                  "value" : 655.226803783729,
                                  "duration" : 20
                                }
                              ]
                            },
                            "scale0" : {
                              "type" : "double",
                              "defaultValue" : 0.339155543983755,
                              "interp" : "eioe"
                            },
                            "scale1" : {
                              "type" : "double",
                              "defaultValue" : 0.339155543983755,
                              "interp" : "eioe"
                            },
                            "sourceCrop0" : {
                              "type" : "double",
                              "defaultValue" : 0.0,
                              "interp" : "eioe"
                            },
                            "sourceCrop1" : {
                              "type" : "double",
                              "defaultValue" : 0.0,
                              "interp" : "eioe"
                            },
                            "sourceCrop2" : {
                              "type" : "double",
                              "defaultValue" : 0.0,
                              "interp" : "eioe"
                            },
                            "sourceCrop3" : {
                              "type" : "double",
                              "defaultValue" : 0.0,
                              "interp" : "eioe"
                            },
                            "geometryCrop0" : {
                              "type" : "double",
                              "defaultValue" : 0.0,
                              "interp" : "eioe"
                            },
                            "geometryCrop1" : {
                              "type" : "double",
                              "defaultValue" : 0.0,
                              "interp" : "eioe"
                            },
                            "geometryCrop2" : {
                              "type" : "double",
                              "defaultValue" : 0.0,
                              "interp" : "eioe"
                            },
                            "geometryCrop3" : {
                              "type" : "double",
                              "defaultValue" : 0.0,
                              "interp" : "eioe"
                            }
                          },
                          "effects" : [
                              {
                                "effectName" : "RoundCorners",
                                "bypassed" : true,
                                "category" : "categoryVisualEffects",
                                "parameters" : {
                                  "bottom-left" : {
                                    "type" : "double",
                                    "defaultValue" : 1.0,
                                    "interp" : "linr",
                                    "uiHints" : {
                                      "userInterfaceType" : 0,
                                      "unitType" : 0
                                    }
                                  },
                                  "bottom-right" : {
                                    "type" : "double",
                                    "defaultValue" : 1.0,
                                    "interp" : "linr",
                                    "uiHints" : {
                                      "userInterfaceType" : 0,
                                      "unitType" : 0
                                    }
                                  },
                                  "radius" : {
                                    "type" : "double",
                                    "defaultValue" : 90.0,
                                    "interp" : "linr",
                                    "uiHints" : {
                                      "userInterfaceType" : 0,
                                      "unitType" : 0
                                    }
                                  },
                                  "top-left" : {
                                    "type" : "double",
                                    "defaultValue" : 1.0,
                                    "interp" : "linr",
                                    "uiHints" : {
                                      "userInterfaceType" : 0,
                                      "unitType" : 0
                                    }
                                  },
                                  "top-right" : {
                                    "type" : "double",
                                    "defaultValue" : 1.0,
                                    "interp" : "linr",
                                    "uiHints" : {
                                      "userInterfaceType" : 0,
                                      "unitType" : 0
                                    }
                                  }
                                },
                                "metadata" : {
                                  "default-RoundCorners_radius" : 20.0,
                                  "effectIndex" : "0",
                                  "presetName" : "Corner Rounding"
                                }
                              }
                          ],
                          "start" : 202,
                          "duration" : 121,
                          "mediaStart" : 0,
                          "mediaDuration" : 121,
                          "scalar" : 1,
                          "animationTracks" : {
                            "visual" : [
                              {
                                "endTime" : 19,
                                "duration" : 19,
                                "range" : [ 0, 19]
                              },
                              {
                                "endTime" : 121,
                                "duration" : 20,
                                "range" : [ 101, 20]
                              }
                            ]
                          }
                        },
                    "audio" : 
                        {
                          "id" : 26,
                          "_type" : "AMFile",
                          "src" : 8,
                          "trackNumber" : 1,
                          "attributes" : {
                            "ident" : "",
                            "gain" : 1.0,
                            "mixToMono" : false,
                            "loudnessNormalization" : true,
                            "sourceFileOffset" : 0
                          },
                            "channelNumber" : "0,1",
                          "parameters" : {
                            "volume" : {
                              "type" : "double",
                              "keyframes" : [
                                {
                                  "endTime" : 0,
                                  "time" : 0,
                                  "value" : 1.0,
                                  "duration" : 0
                                },
                                {
                                  "endTime" : 101,
                                  "time" : 101,
                                  "value" : 1.0,
                                  "duration" : 0
                                },
                                {
                                  "endTime" : 121,
                                  "time" : 121,
                                  "value" : 0.0,
                                  "duration" : 0
                                },
                                {
                                  "endTime" : 122,
                                  "time" : 122,
                                  "value" : 1.0,
                                  "duration" : 0
                                }
                              ]
                            }
                          },
                          "effects" : [

                          ],
                          "start" : 202,
                          "duration" : 121,
                          "mediaStart" : 0,
                          "mediaDuration" : 121,
                          "scalar" : 1,
                          "animationTracks" : {

                          }
                        }
,
                    "start" : 202,
                    "duration" : 121,
                    "mediaStart" : 0,
                    "mediaDuration" : 663,
                    "scalar" : 1,
                    "metadata" : {
                      "clipSpeedAttribute" : false,
                      "default-height" : 651.17864444881,
                      "default-translation0" : -421.585172915439,
                      "default-translation1" : -0.581867283950777,
                      "default-width" : 366.287987502455
                    }
                  }
                ]
              },
              {
                "trackIndex" : 2,
                "medias" : [
                  {
                    "id" : 27,
                    "_type" : "UnifiedMedia",
                    "video" : 
                        {
                          "id" : 28,
                          "_type" : "VMFile",
                          "src" : 7,
                          "trackNumber" : 0,
                          "attributes" : {
                            "ident" : "2-John316_3_9_19"
                          },
                          "parameters" : {
                            "translation0" : {
                              "type" : "double",
                              "defaultValue" : -421.585172915439,
                              "interp" : "eioe"
                            },
                            "translation1" : {
                              "type" : "double",
                              "defaultValue" : -648.915200617284,
                              "interp" : "eioe",
                              "keyframes" : [
                                {
                                  "endTime" : 19,
                                  "time" : 0,
                                  "value" : 0.908328794480596,
                                  "duration" : 19
                                },
                                {
                                  "endTime" : 121,
                                  "time" : 101,
                                  "value" : 653.922655557737,
                                  "duration" : 20
                                }
                              ]
                            },
                            "scale0" : {
                              "type" : "double",
                              "defaultValue" : 0.349720002389264,
                              "interp" : "eioe"
                            },
                            "scale1" : {
                              "type" : "double",
                              "defaultValue" : 0.349720002389264,
                              "interp" : "eioe"
                            },
                            "sourceCrop0" : {
                              "type" : "double",
                              "defaultValue" : 0.0,
                              "interp" : "eioe"
                            },
                            "sourceCrop1" : {
                              "type" : "double",
                              "defaultValue" : 0.0,
                              "interp" : "eioe"
                            },
                            "sourceCrop2" : {
                              "type" : "double",
                              "defaultValue" : 0.0,
                              "interp" : "eioe"
                            },
                            "sourceCrop3" : {
                              "type" : "double",
                              "defaultValue" : 0.0,
                              "interp" : "eioe"
                            },
                            "geometryCrop0" : {
                              "type" : "double",
                              "defaultValue" : 0.0,
                              "interp" : "eioe"
                            },
                            "geometryCrop1" : {
                              "type" : "double",
                              "defaultValue" : 0.0,
                              "interp" : "eioe"
                            },
                            "geometryCrop2" : {
                              "type" : "double",
                              "defaultValue" : 0.0,
                              "interp" : "eioe"
                            },
                            "geometryCrop3" : {
                              "type" : "double",
                              "defaultValue" : 0.0,
                              "interp" : "eioe"
                            }
                          },
                          "effects" : [
                              {
                                "effectName" : "RoundCorners",
                                "bypassed" : true,
                                "category" : "categoryVisualEffects",
                                "parameters" : {
                                  "bottom-left" : {
                                    "type" : "double",
                                    "defaultValue" : 1.0,
                                    "interp" : "linr",
                                    "uiHints" : {
                                      "userInterfaceType" : 0,
                                      "unitType" : 0
                                    }
                                  },
                                  "bottom-right" : {
                                    "type" : "double",
                                    "defaultValue" : 1.0,
                                    "interp" : "linr",
                                    "uiHints" : {
                                      "userInterfaceType" : 0,
                                      "unitType" : 0
                                    }
                                  },
                                  "radius" : {
                                    "type" : "double",
                                    "defaultValue" : 90.0,
                                    "interp" : "linr",
                                    "uiHints" : {
                                      "userInterfaceType" : 0,
                                      "unitType" : 0
                                    }
                                  },
                                  "top-left" : {
                                    "type" : "double",
                                    "defaultValue" : 1.0,
                                    "interp" : "linr",
                                    "uiHints" : {
                                      "userInterfaceType" : 0,
                                      "unitType" : 0
                                    }
                                  },
                                  "top-right" : {
                                    "type" : "double",
                                    "defaultValue" : 1.0,
                                    "interp" : "linr",
                                    "uiHints" : {
                                      "userInterfaceType" : 0,
                                      "unitType" : 0
                                    }
                                  }
                                },
                                "metadata" : {
                                  "default-RoundCorners_radius" : 20.0,
                                  "effectIndex" : "0",
                                  "presetName" : "Corner Rounding"
                                }
                              }
                          ],
                          "start" : 101,
                          "duration" : 121,
                          "mediaStart" : 0,
                          "mediaDuration" : 121,
                          "scalar" : 1,
                          "animationTracks" : {
                            "visual" : [
                              {
                                "endTime" : 19,
                                "duration" : 19,
                                "range" : [ 0, 19]
                              },
                              {
                                "endTime" : 121,
                                "duration" : 20,
                                "range" : [ 101, 20]
                              }
                            ]
                          }
                        },
                    "audio" : 
                        {
                          "id" : 29,
                          "_type" : "AMFile",
                          "src" : 7,
                          "trackNumber" : 1,
                          "attributes" : {
                            "ident" : "",
                            "gain" : 1.0,
                            "mixToMono" : false,
                            "loudnessNormalization" : true,
                            "sourceFileOffset" : 0
                          },
                            "channelNumber" : "0,1",
                          "parameters" : {
                            "volume" : {
                              "type" : "double",
                              "keyframes" : [
                                {
                                  "endTime" : 0,
                                  "time" : 0,
                                  "value" : 1.0,
                                  "duration" : 0
                                },
                                {
                                  "endTime" : 101,
                                  "time" : 101,
                                  "value" : 1.0,
                                  "duration" : 0
                                },
                                {
                                  "endTime" : 121,
                                  "time" : 121,
                                  "value" : 0.0,
                                  "duration" : 0
                                },
                                {
                                  "endTime" : 122,
                                  "time" : 122,
                                  "value" : 1.0,
                                  "duration" : 0
                                }
                              ]
                            }
                          },
                          "effects" : [

                          ],
                          "start" : 101,
                          "duration" : 121,
                          "mediaStart" : 0,
                          "mediaDuration" : 121,
                          "scalar" : 1,
                          "animationTracks" : {

                          }
                        }
,
                    "start" : 101,
                    "duration" : 121,
                    "mediaStart" : 0,
                    "mediaDuration" : 902,
                    "scalar" : 1,
                    "metadata" : {
                      "clipSpeedAttribute" : false,
                      "default-height" : 651.17864444881,
                      "default-translation0" : -421.585172915439,
                      "default-translation1" : -0.581867283950777,
                      "default-width" : 365.80712249917
                    }
                  },
                  {
                    "id" : 30,
                    "_type" : "UnifiedMedia",
                    "video" : 
                        {
                          "id" : 31,
                          "_type" : "VMFile",
                          "src" : 10,
                          "trackNumber" : 0,
                          "attributes" : {
                            "ident" : "4-1Peter48_24_21_12"
                          },
                          "parameters" : {
                            "translation0" : {
                              "type" : "double",
                              "defaultValue" : -421.585172915439,
                              "interp" : "eioe",
                              "keyframes" : [
                                {
                                  "endTime" : 19,
                                  "time" : 0,
                                  "value" : -421.585172915439,
                                  "duration" : 19
                                },
                                {
                                  "endTime" : 121,
                                  "time" : 101,
                                  "value" : -421.585172915439,
                                  "duration" : 20
                                }
                              ]
                            },
                            "translation1" : {
                              "type" : "double",
                              "defaultValue" : -649.511977782143,
                              "interp" : "eioe",
                              "keyframes" : [
                                {
                                  "endTime" : 19,
                                  "time" : 0,
                                  "value" : 2.08479938271589,
                                  "duration" : 19
                                },
                                {
                                  "endTime" : 121,
                                  "time" : 101,
                                  "value" : 653.922655557737,
                                  "duration" : 20
                                }
                              ]
                            },
                            "scale0" : {
                              "type" : "double",
                              "defaultValue" : 0.339155543983755,
                              "interp" : "eioe"
                            },
                            "scale1" : {
                              "type" : "double",
                              "defaultValue" : 0.339155543983755,
                              "interp" : "eioe"
                            },
                            "sourceCrop0" : {
                              "type" : "double",
                              "defaultValue" : 0.0,
                              "interp" : "eioe"
                            },
                            "sourceCrop1" : {
                              "type" : "double",
                              "defaultValue" : 0.0,
                              "interp" : "eioe"
                            },
                            "sourceCrop2" : {
                              "type" : "double",
                              "defaultValue" : 0.0,
                              "interp" : "eioe"
                            },
                            "sourceCrop3" : {
                              "type" : "double",
                              "defaultValue" : 0.0,
                              "interp" : "eioe"
                            },
                            "geometryCrop0" : {
                              "type" : "double",
                              "defaultValue" : 0.0,
                              "interp" : "eioe"
                            },
                            "geometryCrop1" : {
                              "type" : "double",
                              "defaultValue" : 0.0,
                              "interp" : "eioe"
                            },
                            "geometryCrop2" : {
                              "type" : "double",
                              "defaultValue" : 0.0,
                              "interp" : "eioe"
                            },
                            "geometryCrop3" : {
                              "type" : "double",
                              "defaultValue" : 0.0,
                              "interp" : "eioe"
                            }
                          },
                          "effects" : [
                              {
                                "effectName" : "RoundCorners",
                                "bypassed" : true,
                                "category" : "categoryVisualEffects",
                                "parameters" : {
                                  "bottom-left" : {
                                    "type" : "double",
                                    "defaultValue" : 1.0,
                                    "interp" : "linr",
                                    "uiHints" : {
                                      "userInterfaceType" : 0,
                                      "unitType" : 0
                                    }
                                  },
                                  "bottom-right" : {
                                    "type" : "double",
                                    "defaultValue" : 1.0,
                                    "interp" : "linr",
                                    "uiHints" : {
                                      "userInterfaceType" : 0,
                                      "unitType" : 0
                                    }
                                  },
                                  "radius" : {
                                    "type" : "double",
                                    "defaultValue" : 90.0,
                                    "interp" : "linr",
                                    "uiHints" : {
                                      "userInterfaceType" : 0,
                                      "unitType" : 0
                                    }
                                  },
                                  "top-left" : {
                                    "type" : "double",
                                    "defaultValue" : 1.0,
                                    "interp" : "linr",
                                    "uiHints" : {
                                      "userInterfaceType" : 0,
                                      "unitType" : 0
                                    }
                                  },
                                  "top-right" : {
                                    "type" : "double",
                                    "defaultValue" : 1.0,
                                    "interp" : "linr",
                                    "uiHints" : {
                                      "userInterfaceType" : 0,
                                      "unitType" : 0
                                    }
                                  }
                                },
                                "metadata" : {
                                  "default-RoundCorners_radius" : 20.0,
                                  "effectIndex" : "0",
                                  "presetName" : "Corner Rounding"
                                }
                              }
                          ],
                          "start" : 303,
                          "duration" : 121,
                          "mediaStart" : 0,
                          "mediaDuration" : 121,
                          "scalar" : 1,
                          "animationTracks" : {
                            "visual" : [
                              {
                                "endTime" : 19,
                                "duration" : 19,
                                "range" : [ 0, 19]
                              },
                              {
                                "endTime" : 121,
                                "duration" : 20,
                                "range" : [ 101, 20]
                              }
                            ]
                          }
                        },
                    "audio" : 
                        {
                          "id" : 32,
                          "_type" : "AMFile",
                          "src" : 10,
                          "trackNumber" : 1,
                          "attributes" : {
                            "ident" : "",
                            "gain" : 1.0,
                            "mixToMono" : false,
                            "loudnessNormalization" : true,
                            "sourceFileOffset" : 0
                          },
                            "channelNumber" : "0,1",
                          "parameters" : {
                            "volume" : {
                              "type" : "double",
                              "keyframes" : [
                                {
                                  "endTime" : 0,
                                  "time" : 0,
                                  "value" : 1.0,
                                  "duration" : 0
                                },
                                {
                                  "endTime" : 102,
                                  "time" : 102,
                                  "value" : 1.0,
                                  "duration" : 0
                                },
                                {
                                  "endTime" : 121,
                                  "time" : 121,
                                  "value" : 0.0,
                                  "duration" : 0
                                },
                                {
                                  "endTime" : 122,
                                  "time" : 122,
                                  "value" : 1.0,
                                  "duration" : 0
                                }
                              ]
                            }
                          },
                          "effects" : [

                          ],
                          "start" : 303,
                          "duration" : 121,
                          "mediaStart" : 0,
                          "mediaDuration" : 121,
                          "scalar" : 1,
                          "animationTracks" : {

                          }
                        }
,
                    "start" : 303,
                    "duration" : 121,
                    "mediaStart" : 0,
                    "mediaDuration" : 294,
                    "scalar" : 1,
                    "metadata" : {
                      "clipSpeedAttribute" : false,
                      "default-height" : 651.17864444881,
                      "default-translation0" : -421.585172915439,
                      "default-translation1" : -0.581867283950777,
                      "default-width" : 366.287987502455
                    }
                  },
                  {
                    "id" : 33,
                    "_type" : "UnifiedMedia",
                    "video" : 
                        {
                          "id" : 34,
                          "_type" : "VMFile",
                          "src" : 13,
                          "trackNumber" : 0,
                          "attributes" : {
                            "ident" : "10-Proverbs1012_23_43_11"
                          },
                          "parameters" : {
                            "translation0" : {
                              "type" : "double",
                              "defaultValue" : -421.585172915439,
                              "interp" : "eioe",
                              "keyframes" : [
                                {
                                  "endTime" : 19,
                                  "time" : 0,
                                  "value" : -421.585172915439,
                                  "duration" : 19
                                },
                                {
                                  "endTime" : 121,
                                  "time" : 101,
                                  "value" : -421.585172915439,
                                  "duration" : 20
                                }
                              ]
                            },
                            "translation1" : {
                              "type" : "double",
                              "defaultValue" : -649.511977782143,
                              "interp" : "eioe",
                              "keyframes" : [
                                {
                                  "endTime" : 19,
                                  "time" : 0,
                                  "value" : -0.581867283950777,
                                  "duration" : 19
                                },
                                {
                                  "endTime" : 121,
                                  "time" : 101,
                                  "value" : 653.922655557737,
                                  "duration" : 20
                                }
                              ]
                            },
                            "scale0" : {
                              "type" : "double",
                              "defaultValue" : 0.339155543983755,
                              "interp" : "eioe",
                              "keyframes" : [
                                {
                                  "endTime" : 19,
                                  "time" : 0,
                                  "value" : 0.339155543983755,
                                  "duration" : 19
                                }
                              ]
                            },
                            "scale1" : {
                              "type" : "double",
                              "defaultValue" : 0.339155543983755,
                              "interp" : "eioe",
                              "keyframes" : [
                                {
                                  "endTime" : 19,
                                  "time" : 0,
                                  "value" : 0.339155543983755,
                                  "duration" : 19
                                }
                              ]
                            },
                            "sourceCrop0" : {
                              "type" : "double",
                              "defaultValue" : 0.0,
                              "interp" : "eioe"
                            },
                            "sourceCrop1" : {
                              "type" : "double",
                              "defaultValue" : 0.0,
                              "interp" : "eioe"
                            },
                            "sourceCrop2" : {
                              "type" : "double",
                              "defaultValue" : 0.0,
                              "interp" : "eioe"
                            },
                            "sourceCrop3" : {
                              "type" : "double",
                              "defaultValue" : 0.0,
                              "interp" : "eioe"
                            },
                            "geometryCrop0" : {
                              "type" : "double",
                              "defaultValue" : 0.0,
                              "interp" : "eioe"
                            },
                            "geometryCrop1" : {
                              "type" : "double",
                              "defaultValue" : 0.0,
                              "interp" : "eioe"
                            },
                            "geometryCrop2" : {
                              "type" : "double",
                              "defaultValue" : 0.0,
                              "interp" : "eioe"
                            },
                            "geometryCrop3" : {
                              "type" : "double",
                              "defaultValue" : 0.0,
                              "interp" : "eioe"
                            }
                          },
                          "effects" : [
                              {
                                "effectName" : "RoundCorners",
                                "bypassed" : true,
                                "category" : "categoryVisualEffects",
                                "parameters" : {
                                  "bottom-left" : {
                                    "type" : "double",
                                    "defaultValue" : 1.0,
                                    "interp" : "linr",
                                    "uiHints" : {
                                      "userInterfaceType" : 0,
                                      "unitType" : 0
                                    }
                                  },
                                  "bottom-right" : {
                                    "type" : "double",
                                    "defaultValue" : 1.0,
                                    "interp" : "linr",
                                    "uiHints" : {
                                      "userInterfaceType" : 0,
                                      "unitType" : 0
                                    }
                                  },
                                  "radius" : {
                                    "type" : "double",
                                    "defaultValue" : 90.0,
                                    "interp" : "linr",
                                    "uiHints" : {
                                      "userInterfaceType" : 0,
                                      "unitType" : 0
                                    }
                                  },
                                  "top-left" : {
                                    "type" : "double",
                                    "defaultValue" : 1.0,
                                    "interp" : "linr",
                                    "uiHints" : {
                                      "userInterfaceType" : 0,
                                      "unitType" : 0
                                    }
                                  },
                                  "top-right" : {
                                    "type" : "double",
                                    "defaultValue" : 1.0,
                                    "interp" : "linr",
                                    "uiHints" : {
                                      "userInterfaceType" : 0,
                                      "unitType" : 0
                                    }
                                  }
                                },
                                "metadata" : {
                                  "default-RoundCorners_radius" : 20.0,
                                  "effectIndex" : "0",
                                  "presetName" : "Corner Rounding"
                                }
                              }
                          ],
                          "start" : 505,
                          "duration" : 121,
                          "mediaStart" : 0,
                          "mediaDuration" : 121,
                          "scalar" : 1,
                          "animationTracks" : {
                            "visual" : [
                              {
                                "endTime" : 19,
                                "duration" : 19,
                                "range" : [ 0, 19]
                              },
                              {
                                "endTime" : 121,
                                "duration" : 20,
                                "range" : [ 101, 20]
                              }
                            ]
                          }
                        },
                    "audio" : 
                        {
                          "id" : 35,
                          "_type" : "AMFile",
                          "src" : 13,
                          "trackNumber" : 1,
                          "attributes" : {
                            "ident" : "",
                            "gain" : 1.0,
                            "mixToMono" : false,
                            "loudnessNormalization" : true,
                            "sourceFileOffset" : 0
                          },
                            "channelNumber" : "0,1",
                          "parameters" : {
                            "volume" : {
                              "type" : "double",
                              "keyframes" : [
                                {
                                  "endTime" : 0,
                                  "time" : 0,
                                  "value" : 1.0,
                                  "duration" : 0
                                },
                                {
                                  "endTime" : 101,
                                  "time" : 101,
                                  "value" : 1.0,
                                  "duration" : 0
                                },
                                {
                                  "endTime" : 121,
                                  "time" : 121,
                                  "value" : 0.0,
                                  "duration" : 0
                                },
                                {
                                  "endTime" : 122,
                                  "time" : 122,
                                  "value" : 1.0,
                                  "duration" : 0
                                }
                              ]
                            }
                          },
                          "effects" : [

                          ],
                          "start" : 505,
                          "duration" : 121,
                          "mediaStart" : 0,
                          "mediaDuration" : 121,
                          "scalar" : 1,
                          "animationTracks" : {

                          }
                        }
,
                    "start" : 505,
                    "duration" : 121,
                    "mediaStart" : 0,
                    "mediaDuration" : 465,
                    "scalar" : 1,
                    "metadata" : {
                      "clipSpeedAttribute" : false
                    }
                  },
                  {
                    "id" : 36,
                    "_type" : "UnifiedMedia",
                    "video" : 
                        {
                          "id" : 37,
                          "_type" : "VMFile",
                          "src" : 16,
                          "trackNumber" : 0,
                          "attributes" : {
                            "ident" : "97-Ephesians52_28_47_21"
                          },
                          "parameters" : {
                            "translation0" : {
                              "type" : "double",
                              "defaultValue" : -421.585172915439,
                              "interp" : "eioe",
                              "keyframes" : [
                                {
                                  "endTime" : 19,
                                  "time" : 0,
                                  "value" : -421.585172915439,
                                  "duration" : 19
                                },
                                {
                                  "endTime" : 121,
                                  "time" : 101,
                                  "value" : -421.585172915439,
                                  "duration" : 20
                                }
                              ]
                            },
                            "translation1" : {
                              "type" : "double",
                              "defaultValue" : -649.511977782143,
                              "interp" : "eioe",
                              "keyframes" : [
                                {
                                  "endTime" : 19,
                                  "time" : 0,
                                  "value" : 0.751466049382557,
                                  "duration" : 19
                                },
                                {
                                  "endTime" : 121,
                                  "time" : 101,
                                  "value" : 653.922655557737,
                                  "duration" : 20
                                }
                              ]
                            },
                            "scale0" : {
                              "type" : "double",
                              "defaultValue" : 0.339155543983755,
                              "interp" : "eioe",
                              "keyframes" : [
                                {
                                  "endTime" : 19,
                                  "time" : 0,
                                  "value" : 0.339155543983755,
                                  "duration" : 19
                                }
                              ]
                            },
                            "scale1" : {
                              "type" : "double",
                              "defaultValue" : 0.339155543983755,
                              "interp" : "eioe",
                              "keyframes" : [
                                {
                                  "endTime" : 19,
                                  "time" : 0,
                                  "value" : 0.339155543983755,
                                  "duration" : 19
                                }
                              ]
                            },
                            "sourceCrop0" : {
                              "type" : "double",
                              "defaultValue" : 0.0,
                              "interp" : "eioe"
                            },
                            "sourceCrop1" : {
                              "type" : "double",
                              "defaultValue" : 0.0,
                              "interp" : "eioe"
                            },
                            "sourceCrop2" : {
                              "type" : "double",
                              "defaultValue" : 0.0,
                              "interp" : "eioe"
                            },
                            "sourceCrop3" : {
                              "type" : "double",
                              "defaultValue" : 0.0,
                              "interp" : "eioe"
                            },
                            "geometryCrop0" : {
                              "type" : "double",
                              "defaultValue" : 0.0,
                              "interp" : "eioe"
                            },
                            "geometryCrop1" : {
                              "type" : "double",
                              "defaultValue" : 0.0,
                              "interp" : "eioe"
                            },
                            "geometryCrop2" : {
                              "type" : "double",
                              "defaultValue" : 0.0,
                              "interp" : "eioe"
                            },
                            "geometryCrop3" : {
                              "type" : "double",
                              "defaultValue" : 0.0,
                              "interp" : "eioe"
                            }
                          },
                          "effects" : [
                              {
                                "effectName" : "RoundCorners",
                                "bypassed" : true,
                                "category" : "categoryVisualEffects",
                                "parameters" : {
                                  "bottom-left" : {
                                    "type" : "double",
                                    "defaultValue" : 1.0,
                                    "interp" : "linr",
                                    "uiHints" : {
                                      "userInterfaceType" : 0,
                                      "unitType" : 0
                                    }
                                  },
                                  "bottom-right" : {
                                    "type" : "double",
                                    "defaultValue" : 1.0,
                                    "interp" : "linr",
                                    "uiHints" : {
                                      "userInterfaceType" : 0,
                                      "unitType" : 0
                                    }
                                  },
                                  "radius" : {
                                    "type" : "double",
                                    "defaultValue" : 90.0,
                                    "interp" : "linr",
                                    "uiHints" : {
                                      "userInterfaceType" : 0,
                                      "unitType" : 0
                                    }
                                  },
                                  "top-left" : {
                                    "type" : "double",
                                    "defaultValue" : 1.0,
                                    "interp" : "linr",
                                    "uiHints" : {
                                      "userInterfaceType" : 0,
                                      "unitType" : 0
                                    }
                                  },
                                  "top-right" : {
                                    "type" : "double",
                                    "defaultValue" : 1.0,
                                    "interp" : "linr",
                                    "uiHints" : {
                                      "userInterfaceType" : 0,
                                      "unitType" : 0
                                    }
                                  }
                                },
                                "metadata" : {
                                  "default-RoundCorners_radius" : 20.0,
                                  "effectIndex" : "0",
                                  "presetName" : "Corner Rounding"
                                }
                              }
                          ],
                          "start" : 707,
                          "duration" : 121,
                          "mediaStart" : 0,
                          "mediaDuration" : 121,
                          "scalar" : 1,
                          "animationTracks" : {
                            "visual" : [
                              {
                                "endTime" : 19,
                                "duration" : 19,
                                "range" : [ 0, 19]
                              },
                              {
                                "endTime" : 121,
                                "duration" : 20,
                                "range" : [ 101, 20]
                              }
                            ]
                          }
                        },
                    "audio" : 
                        {
                          "id" : 38,
                          "_type" : "AMFile",
                          "src" : 16,
                          "trackNumber" : 1,
                          "attributes" : {
                            "ident" : "",
                            "gain" : 1.0,
                            "mixToMono" : false,
                            "loudnessNormalization" : true,
                            "sourceFileOffset" : 0
                          },
                            "channelNumber" : "0,1",
                          "parameters" : {
                            "volume" : {
                              "type" : "double",
                              "keyframes" : [
                                {
                                  "endTime" : 0,
                                  "time" : 0,
                                  "value" : 1.0,
                                  "duration" : 0
                                },
                                {
                                  "endTime" : 101,
                                  "time" : 101,
                                  "value" : 1.0,
                                  "duration" : 0
                                },
                                {
                                  "endTime" : 121,
                                  "time" : 121,
                                  "value" : 0.0,
                                  "duration" : 0
                                },
                                {
                                  "endTime" : 122,
                                  "time" : 122,
                                  "value" : 1.0,
                                  "duration" : 0
                                }
                              ]
                            }
                          },
                          "effects" : [

                          ],
                          "start" : 707,
                          "duration" : 121,
                          "mediaStart" : 0,
                          "mediaDuration" : 121,
                          "scalar" : 1,
                          "animationTracks" : {

                          }
                        }
,
                    "start" : 707,
                    "duration" : 121,
                    "mediaStart" : 0,
                    "mediaDuration" : 618,
                    "scalar" : 1,
                    "metadata" : {
                      "clipSpeedAttribute" : false,
                      "default-height" : 651.17864444881,
                      "default-translation1" : -0.581867283950777,
                      "default-width" : 366.287987502455
                    }
                  }
                ]
              },
              {
                "trackIndex" : 3,
                "medias" : [
                  {
                    "id" : 39,
                    "_type" : "UnifiedMedia",
                    "video" : 
                        {
                          "id" : 40,
                          "_type" : "VMFile",
                          "src" : 12,
                          "trackNumber" : 0,
                          "attributes" : {
                            "ident" : "7-John1513_36_12_2"
                          },
                          "parameters" : {
                            "translation0" : {
                              "type" : "double",
                              "defaultValue" : -421.585172915439,
                              "interp" : "eioe",
                              "keyframes" : [
                                {
                                  "endTime" : 19,
                                  "time" : 0,
                                  "value" : -421.585172915439,
                                  "duration" : 19
                                },
                                {
                                  "endTime" : 121,
                                  "time" : 101,
                                  "value" : -421.585172915439,
                                  "duration" : 20
                                }
                              ]
                            },
                            "translation1" : {
                              "type" : "double",
                              "defaultValue" : -649.718799231942,
                              "interp" : "eioe",
                              "keyframes" : [
                                {
                                  "endTime" : 19,
                                  "time" : 0,
                                  "value" : 0.714826001586236,
                                  "duration" : 19
                                },
                                {
                                  "endTime" : 121,
                                  "time" : 101,
                                  "value" : 652.25598889107,
                                  "duration" : 20
                                }
                              ]
                            },
                            "scale0" : {
                              "type" : "double",
                              "defaultValue" : 0.339155543983755,
                              "interp" : "eioe"
                            },
                            "scale1" : {
                              "type" : "double",
                              "defaultValue" : 0.339155543983755,
                              "interp" : "eioe"
                            },
                            "sourceCrop0" : {
                              "type" : "double",
                              "defaultValue" : 0.0,
                              "interp" : "eioe"
                            },
                            "sourceCrop1" : {
                              "type" : "double",
                              "defaultValue" : 0.0,
                              "interp" : "eioe"
                            },
                            "sourceCrop2" : {
                              "type" : "double",
                              "defaultValue" : 0.0,
                              "interp" : "eioe"
                            },
                            "sourceCrop3" : {
                              "type" : "double",
                              "defaultValue" : 0.0,
                              "interp" : "eioe"
                            },
                            "geometryCrop0" : {
                              "type" : "double",
                              "defaultValue" : 0.0,
                              "interp" : "eioe"
                            },
                            "geometryCrop1" : {
                              "type" : "double",
                              "defaultValue" : 0.0,
                              "interp" : "eioe"
                            },
                            "geometryCrop2" : {
                              "type" : "double",
                              "defaultValue" : 0.0,
                              "interp" : "eioe"
                            },
                            "geometryCrop3" : {
                              "type" : "double",
                              "defaultValue" : 0.0,
                              "interp" : "eioe"
                            }
                          },
                          "effects" : [
                              {
                                "effectName" : "RoundCorners",
                                "bypassed" : true,
                                "category" : "categoryVisualEffects",
                                "parameters" : {
                                  "bottom-left" : {
                                    "type" : "double",
                                    "defaultValue" : 1.0,
                                    "interp" : "linr",
                                    "uiHints" : {
                                      "userInterfaceType" : 0,
                                      "unitType" : 0
                                    }
                                  },
                                  "bottom-right" : {
                                    "type" : "double",
                                    "defaultValue" : 1.0,
                                    "interp" : "linr",
                                    "uiHints" : {
                                      "userInterfaceType" : 0,
                                      "unitType" : 0
                                    }
                                  },
                                  "radius" : {
                                    "type" : "double",
                                    "defaultValue" : 90.0,
                                    "interp" : "linr",
                                    "uiHints" : {
                                      "userInterfaceType" : 0,
                                      "unitType" : 0
                                    }
                                  },
                                  "top-left" : {
                                    "type" : "double",
                                    "defaultValue" : 1.0,
                                    "interp" : "linr",
                                    "uiHints" : {
                                      "userInterfaceType" : 0,
                                      "unitType" : 0
                                    }
                                  },
                                  "top-right" : {
                                    "type" : "double",
                                    "defaultValue" : 1.0,
                                    "interp" : "linr",
                                    "uiHints" : {
                                      "userInterfaceType" : 0,
                                      "unitType" : 0
                                    }
                                  }
                                },
                                "metadata" : {
                                  "default-RoundCorners_radius" : 20.0,
                                  "effectIndex" : "0",
                                  "presetName" : "Corner Rounding"
                                }
                              }
                          ],
                          "start" : 404,
                          "duration" : 121,
                          "mediaStart" : 0,
                          "mediaDuration" : 121,
                          "scalar" : 1,
                          "animationTracks" : {
                            "visual" : [
                              {
                                "endTime" : 19,
                                "duration" : 19,
                                "range" : [ 0, 19]
                              },
                              {
                                "endTime" : 121,
                                "duration" : 20,
                                "range" : [ 101, 20]
                              }
                            ]
                          }
                        },
                    "audio" : 
                        {
                          "id" : 41,
                          "_type" : "AMFile",
                          "src" : 12,
                          "trackNumber" : 1,
                          "attributes" : {
                            "ident" : "",
                            "gain" : 1.0,
                            "mixToMono" : false,
                            "loudnessNormalization" : true,
                            "sourceFileOffset" : 0
                          },
                            "channelNumber" : "0,1",
                          "parameters" : {
                            "volume" : {
                              "type" : "double",
                              "keyframes" : [
                                {
                                  "endTime" : 0,
                                  "time" : 0,
                                  "value" : 1.0,
                                  "duration" : 0
                                },
                                {
                                  "endTime" : 101,
                                  "time" : 101,
                                  "value" : 0.999999999999997,
                                  "duration" : 0
                                },
                                {
                                  "endTime" : 121,
                                  "time" : 121,
                                  "value" : 0.0,
                                  "duration" : 0
                                },
                                {
                                  "endTime" : 122,
                                  "time" : 122,
                                  "value" : 1.0,
                                  "duration" : 0
                                }
                              ]
                            }
                          },
                          "effects" : [

                          ],
                          "start" : 404,
                          "duration" : 121,
                          "mediaStart" : 0,
                          "mediaDuration" : 121,
                          "scalar" : 1,
                          "animationTracks" : {

                          }
                        }
,
                    "start" : 404,
                    "duration" : 121,
                    "mediaStart" : 0,
                    "mediaDuration" : 588,
                    "scalar" : 1,
                    "metadata" : {
                      "clipSpeedAttribute" : false,
                      "default-height" : 651.17864444881,
                      "default-translation0" : -421.585172915439,
                      "default-translation1" : -0.581867283950777,
                      "default-width" : 366.287987502455
                    }
                  },
                  {
                    "id" : 42,
                    "_type" : "UnifiedMedia",
                    "video" : 
                        {
                          "id" : 43,
                          "_type" : "VMFile",
                          "src" : 14,
                          "trackNumber" : 0,
                          "attributes" : {
                            "ident" : "54-John1334_20_15_15"
                          },
                          "parameters" : {
                            "translation0" : {
                              "type" : "double",
                              "defaultValue" : -421.585172915439,
                              "interp" : "eioe",
                              "keyframes" : [
                                {
                                  "endTime" : 19,
                                  "time" : 0,
                                  "value" : -421.585172915439,
                                  "duration" : 19
                                },
                                {
                                  "endTime" : 121,
                                  "time" : 101,
                                  "value" : -421.585172915439,
                                  "duration" : 20
                                }
                              ]
                            },
                            "translation1" : {
                              "type" : "double",
                              "defaultValue" : -649.718799231942,
                              "interp" : "eioe",
                              "keyframes" : [
                                {
                                  "endTime" : 19,
                                  "time" : 0,
                                  "value" : 0.714826001586236,
                                  "duration" : 19
                                },
                                {
                                  "endTime" : 121,
                                  "time" : 101,
                                  "value" : 653.007162599991,
                                  "duration" : 20
                                }
                              ]
                            },
                            "scale0" : {
                              "type" : "double",
                              "defaultValue" : 0.339155543983755,
                              "interp" : "eioe",
                              "keyframes" : [
                                {
                                  "endTime" : 19,
                                  "time" : 0,
                                  "value" : 0.339155543983755,
                                  "duration" : 19
                                }
                              ]
                            },
                            "scale1" : {
                              "type" : "double",
                              "defaultValue" : 0.339155543983755,
                              "interp" : "eioe",
                              "keyframes" : [
                                {
                                  "endTime" : 19,
                                  "time" : 0,
                                  "value" : 0.339155543983755,
                                  "duration" : 19
                                }
                              ]
                            },
                            "sourceCrop0" : {
                              "type" : "double",
                              "defaultValue" : 0.0,
                              "interp" : "eioe"
                            },
                            "sourceCrop1" : {
                              "type" : "double",
                              "defaultValue" : 0.0,
                              "interp" : "eioe"
                            },
                            "sourceCrop2" : {
                              "type" : "double",
                              "defaultValue" : 0.0,
                              "interp" : "eioe"
                            },
                            "sourceCrop3" : {
                              "type" : "double",
                              "defaultValue" : 0.0,
                              "interp" : "eioe"
                            },
                            "geometryCrop0" : {
                              "type" : "double",
                              "defaultValue" : 0.0,
                              "interp" : "eioe"
                            },
                            "geometryCrop1" : {
                              "type" : "double",
                              "defaultValue" : 0.0,
                              "interp" : "eioe"
                            },
                            "geometryCrop2" : {
                              "type" : "double",
                              "defaultValue" : 0.0,
                              "interp" : "eioe"
                            },
                            "geometryCrop3" : {
                              "type" : "double",
                              "defaultValue" : 0.0,
                              "interp" : "eioe"
                            }
                          },
                          "effects" : [
                              {
                                "effectName" : "RoundCorners",
                                "bypassed" : true,
                                "category" : "categoryVisualEffects",
                                "parameters" : {
                                  "bottom-left" : {
                                    "type" : "double",
                                    "defaultValue" : 1.0,
                                    "interp" : "linr",
                                    "uiHints" : {
                                      "userInterfaceType" : 0,
                                      "unitType" : 0
                                    }
                                  },
                                  "bottom-right" : {
                                    "type" : "double",
                                    "defaultValue" : 1.0,
                                    "interp" : "linr",
                                    "uiHints" : {
                                      "userInterfaceType" : 0,
                                      "unitType" : 0
                                    }
                                  },
                                  "radius" : {
                                    "type" : "double",
                                    "defaultValue" : 90.0,
                                    "interp" : "linr",
                                    "uiHints" : {
                                      "userInterfaceType" : 0,
                                      "unitType" : 0
                                    }
                                  },
                                  "top-left" : {
                                    "type" : "double",
                                    "defaultValue" : 1.0,
                                    "interp" : "linr",
                                    "uiHints" : {
                                      "userInterfaceType" : 0,
                                      "unitType" : 0
                                    }
                                  },
                                  "top-right" : {
                                    "type" : "double",
                                    "defaultValue" : 1.0,
                                    "interp" : "linr",
                                    "uiHints" : {
                                      "userInterfaceType" : 0,
                                      "unitType" : 0
                                    }
                                  }
                                },
                                "metadata" : {
                                  "default-RoundCorners_radius" : 20.0,
                                  "effectIndex" : "0",
                                  "presetName" : "Corner Rounding"
                                }
                              }
                          ],
                          "start" : 606,
                          "duration" : 121,
                          "mediaStart" : 0,
                          "mediaDuration" : 121,
                          "scalar" : 1,
                          "animationTracks" : {
                            "visual" : [
                              {
                                "endTime" : 19,
                                "duration" : 19,
                                "range" : [ 0, 19]
                              },
                              {
                                "endTime" : 121,
                                "duration" : 20,
                                "range" : [ 101, 20]
                              }
                            ]
                          }
                        },
                    "audio" : 
                        {
                          "id" : 44,
                          "_type" : "AMFile",
                          "src" : 14,
                          "trackNumber" : 1,
                          "attributes" : {
                            "ident" : "",
                            "gain" : 1.0,
                            "mixToMono" : false,
                            "loudnessNormalization" : true,
                            "sourceFileOffset" : 0
                          },
                            "channelNumber" : "0,1",
                          "parameters" : {
                            "volume" : {
                              "type" : "double",
                              "keyframes" : [
                                {
                                  "endTime" : 0,
                                  "time" : 0,
                                  "value" : 1.0,
                                  "duration" : 0
                                },
                                {
                                  "endTime" : 101,
                                  "time" : 101,
                                  "value" : 1.0,
                                  "duration" : 0
                                },
                                {
                                  "endTime" : 121,
                                  "time" : 121,
                                  "value" : 0.0,
                                  "duration" : 0
                                },
                                {
                                  "endTime" : 122,
                                  "time" : 122,
                                  "value" : 1.0,
                                  "duration" : 0
                                }
                              ]
                            }
                          },
                          "effects" : [

                          ],
                          "start" : 606,
                          "duration" : 121,
                          "mediaStart" : 0,
                          "mediaDuration" : 121,
                          "scalar" : 1,
                          "animationTracks" : {

                          }
                        }
,
                    "start" : 606,
                    "duration" : 121,
                    "mediaStart" : 0,
                    "mediaDuration" : 531,
                    "scalar" : 1,
                    "metadata" : {
                      "clipSpeedAttribute" : false,
                      "default-height" : 651.17864444881,
                      "default-translation0" : -421.585172915439,
                      "default-translation1" : 0.714826001586236,
                      "default-width" : 366.287987502455
                    }
                  },
                  {
                    "id" : 45,
                    "_type" : "UnifiedMedia",
                    "video" : 
                        {
                          "id" : 46,
                          "_type" : "VMFile",
                          "src" : 17,
                          "trackNumber" : 0,
                          "attributes" : {
                            "ident" : "19-John1415_42_25_7"
                          },
                          "parameters" : {
                            "translation0" : {
                              "type" : "double",
                              "defaultValue" : -421.585172915439,
                              "interp" : "eioe",
                              "keyframes" : [
                                {
                                  "endTime" : 19,
                                  "time" : 0,
                                  "value" : -421.585172915439,
                                  "duration" : 19
                                }
                              ]
                            },
                            "translation1" : {
                              "type" : "double",
                              "defaultValue" : -649.718799231942,
                              "interp" : "eioe",
                              "keyframes" : [
                                {
                                  "endTime" : 19,
                                  "time" : 0,
                                  "value" : 0.714826001586236,
                                  "duration" : 19
                                }
                              ]
                            },
                            "scale0" : {
                              "type" : "double",
                              "defaultValue" : 0.339155543983755,
                              "interp" : "eioe",
                              "keyframes" : [
                                {
                                  "endTime" : 19,
                                  "time" : 0,
                                  "value" : 0.339155543983755,
                                  "duration" : 19
                                }
                              ]
                            },
                            "scale1" : {
                              "type" : "double",
                              "defaultValue" : 0.339155543983755,
                              "interp" : "eioe",
                              "keyframes" : [
                                {
                                  "endTime" : 19,
                                  "time" : 0,
                                  "value" : 0.339155543983755,
                                  "duration" : 19
                                }
                              ]
                            },
                            "sourceCrop0" : {
                              "type" : "double",
                              "defaultValue" : 0.0,
                              "interp" : "eioe"
                            },
                            "sourceCrop1" : {
                              "type" : "double",
                              "defaultValue" : 0.0,
                              "interp" : "eioe"
                            },
                            "sourceCrop2" : {
                              "type" : "double",
                              "defaultValue" : 0.0,
                              "interp" : "eioe"
                            },
                            "sourceCrop3" : {
                              "type" : "double",
                              "defaultValue" : 0.0,
                              "interp" : "eioe"
                            },
                            "geometryCrop0" : {
                              "type" : "double",
                              "defaultValue" : 0.0,
                              "interp" : "eioe"
                            },
                            "geometryCrop1" : {
                              "type" : "double",
                              "defaultValue" : 0.0,
                              "interp" : "eioe"
                            },
                            "geometryCrop2" : {
                              "type" : "double",
                              "defaultValue" : 0.0,
                              "interp" : "eioe"
                            },
                            "geometryCrop3" : {
                              "type" : "double",
                              "defaultValue" : 0.0,
                              "interp" : "eioe"
                            }
                          },
                          "effects" : [
                              {
                                "effectName" : "RoundCorners",
                                "bypassed" : true,
                                "category" : "categoryVisualEffects",
                                "parameters" : {
                                  "bottom-left" : {
                                    "type" : "double",
                                    "defaultValue" : 1.0,
                                    "interp" : "linr",
                                    "uiHints" : {
                                      "userInterfaceType" : 0,
                                      "unitType" : 0
                                    }
                                  },
                                  "bottom-right" : {
                                    "type" : "double",
                                    "defaultValue" : 1.0,
                                    "interp" : "linr",
                                    "uiHints" : {
                                      "userInterfaceType" : 0,
                                      "unitType" : 0
                                    }
                                  },
                                  "radius" : {
                                    "type" : "double",
                                    "defaultValue" : 90.0,
                                    "interp" : "linr",
                                    "uiHints" : {
                                      "userInterfaceType" : 0,
                                      "unitType" : 0
                                    }
                                  },
                                  "top-left" : {
                                    "type" : "double",
                                    "defaultValue" : 1.0,
                                    "interp" : "linr",
                                    "uiHints" : {
                                      "userInterfaceType" : 0,
                                      "unitType" : 0
                                    }
                                  },
                                  "top-right" : {
                                    "type" : "double",
                                    "defaultValue" : 1.0,
                                    "interp" : "linr",
                                    "uiHints" : {
                                      "userInterfaceType" : 0,
                                      "unitType" : 0
                                    }
                                  }
                                },
                                "metadata" : {
                                  "default-RoundCorners_radius" : 20.0,
                                  "effectIndex" : "0",
                                  "presetName" : "Corner Rounding"
                                }
                              }
                          ],
                          "start" : 808,
                          "duration" : 120,
                          "mediaStart" : 0,
                          "mediaDuration" : 120,
                          "scalar" : 1,
                          "animationTracks" : {
                            "visual" : [
                              {
                                "endTime" : 19,
                                "duration" : 19,
                                "range" : [ 0, 19]
                              }
                            ]
                          }
                        },
                    "audio" : 
                        {
                          "id" : 47,
                          "_type" : "AMFile",
                          "src" : 17,
                          "trackNumber" : 1,
                          "attributes" : {
                            "ident" : "",
                            "gain" : 1.0,
                            "mixToMono" : false,
                            "loudnessNormalization" : true,
                            "sourceFileOffset" : 0
                          },
                            "channelNumber" : "0,1",
                          "parameters" : {
                            "volume" : {
                              "type" : "double",
                              "keyframes" : [
                                {
                                  "endTime" : 0,
                                  "time" : 0,
                                  "value" : 1.0,
                                  "duration" : 0
                                },
                                {
                                  "endTime" : 94,
                                  "time" : 94,
                                  "value" : 1.0,
                                  "duration" : 0
                                },
                                {
                                  "endTime" : 121,
                                  "time" : 121,
                                  "value" : 0.0,
                                  "duration" : 0
                                },
                                {
                                  "endTime" : 122,
                                  "time" : 122,
                                  "value" : 1.0,
                                  "duration" : 0
                                }
                              ]
                            }
                          },
                          "effects" : [

                          ],
                          "start" : 808,
                          "duration" : 120,
                          "mediaStart" : 0,
                          "mediaDuration" : 120,
                          "scalar" : 1,
                          "animationTracks" : {

                          }
                        }
,
                    "start" : 808,
                    "duration" : 120,
                    "mediaStart" : 0,
                    "mediaDuration" : 624,
                    "scalar" : 1,
                    "metadata" : {
                      "clipSpeedAttribute" : false
                    }
                  }
                ]
              },
              {
                "trackIndex" : 4,
                "medias" : [
                  {
                    "id" : 48,
                    "_type" : "Group",
                    "parameters" : {
                      "translation0" : -401.0,
                      "translation1" : -1.0,
                      "sourceCrop0" : 0.0,
                      "sourceCrop1" : 0.0,
                      "sourceCrop2" : 0.0,
                      "sourceCrop3" : 0.0,
                      "geometryCrop0" : 0.0,
                      "geometryCrop1" : 0.0,
                      "geometryCrop2" : 0.0,
                      "geometryCrop3" : 0.0,
                      "volume" : 1.0
                    },
                    "tracks" : [
                      {
                        "trackIndex" : 0,
                        "medias" : [
                          {
                            "id" : 49,
                            "_type" : "IMFile",
                            "src" : 9,
                            "trackNumber" : 0,
                            "trimStartSum" : 0,
                            "attributes" : {
                              "ident" : "yellow_background"
                            },
                            "parameters" : {
                              "translation0" : {
                                "type" : "double",
                                "defaultValue" : 0.0793441782349191,
                                "interp" : "eioe"
                              },
                              "translation1" : {
                                "type" : "double",
                                "defaultValue" : 356.534572026228,
                                "interp" : "eioe"
                              },
                              "scale0" : {
                                "type" : "double",
                                "defaultValue" : 0.320282269866897,
                                "interp" : "eioe"
                              },
                              "scale1" : {
                                "type" : "double",
                                "defaultValue" : 0.0740323224285344,
                                "interp" : "eioe"
                              },
                              "sourceCrop0" : {
                                "type" : "double",
                                "defaultValue" : 0.0,
                                "interp" : "eioe"
                              },
                              "sourceCrop1" : {
                                "type" : "double",
                                "defaultValue" : 0.0,
                                "interp" : "eioe"
                              },
                              "sourceCrop2" : {
                                "type" : "double",
                                "defaultValue" : 0.0,
                                "interp" : "eioe"
                              },
                              "sourceCrop3" : {
                                "type" : "double",
                                "defaultValue" : 0.0,
                                "interp" : "eioe"
                              },
                              "geometryCrop0" : {
                                "type" : "double",
                                "defaultValue" : 0.0,
                                "interp" : "eioe"
                              },
                              "geometryCrop1" : {
                                "type" : "double",
                                "defaultValue" : 0.0,
                                "interp" : "eioe"
                              },
                              "geometryCrop2" : {
                                "type" : "double",
                                "defaultValue" : 0.0,
                                "interp" : "eioe"
                              },
                              "geometryCrop3" : {
                                "type" : "double",
                                "defaultValue" : 0.0,
                                "interp" : "eioe"
                              }
                            },
                            "effects" : [

                            ],
                            "start" : 0,
                            "duration" : 928,
                            "mediaStart" : 0,
                            "mediaDuration" : 1,
                            "scalar" : 1,
                            "metadata" : {
                              "clipSpeedAttribute" : false,
                              "default-height" : 769.0,
                              "default-scale0" : 1.0,
                              "default-scale1" : 1.0,
                              "default-translation0" : 0.0,
                              "default-translation1" : -0.5,
                              "default-width" : 1280.0
                            },
                            "animationTracks" : {

                            }
                          }
                        ],
                          "ident" : "",
                          "audioMuted" : false,
                          "videoHidden" : false,
                          "magnetic" : false,
                          "matte" : 0,
                          "solo" : false,
                          "metadata" : {
                            "IsLocked" : "False",
                            "WinTrackHeight" : "56"
                          }
                      },
                      {
                        "trackIndex" : 1,
                        "medias" : [
                          {
                            "id" : 50,
                            "_type" : "IMFile",
                            "src" : 9,
                            "trackNumber" : 0,
                            "trimStartSum" : 0,
                            "attributes" : {
                              "ident" : "yellow_background"
                            },
                            "parameters" : {
                              "translation0" : {
                                "type" : "double",
                                "defaultValue" : 0.0793441782348623,
                                "interp" : "eioe"
                              },
                              "translation1" : {
                                "type" : "double",
                                "defaultValue" : -354.064738503769,
                                "interp" : "eioe"
                              },
                              "scale0" : {
                                "type" : "double",
                                "defaultValue" : 0.373561475278492,
                                "interp" : "eioe"
                              },
                              "scale1" : {
                                "type" : "double",
                                "defaultValue" : 0.0778550364011211,
                                "interp" : "eioe"
                              },
                              "sourceCrop0" : {
                                "type" : "double",
                                "defaultValue" : 0.0,
                                "interp" : "eioe"
                              },
                              "sourceCrop1" : {
                                "type" : "double",
                                "defaultValue" : 0.0,
                                "interp" : "eioe"
                              },
                              "sourceCrop2" : {
                                "type" : "double",
                                "defaultValue" : 0.0,
                                "interp" : "eioe"
                              },
                              "sourceCrop3" : {
                                "type" : "double",
                                "defaultValue" : 0.0,
                                "interp" : "eioe"
                              },
                              "geometryCrop0" : {
                                "type" : "double",
                                "defaultValue" : 0.0,
                                "interp" : "eioe"
                              },
                              "geometryCrop1" : {
                                "type" : "double",
                                "defaultValue" : 0.0,
                                "interp" : "eioe"
                              },
                              "geometryCrop2" : {
                                "type" : "double",
                                "defaultValue" : 0.0,
                                "interp" : "eioe"
                              },
                              "geometryCrop3" : {
                                "type" : "double",
                                "defaultValue" : 0.0,
                                "interp" : "eioe"
                              }
                            },
                            "effects" : [

                            ],
                            "start" : 0,
                            "duration" : 928,
                            "mediaStart" : 0,
                            "mediaDuration" : 1,
                            "scalar" : 1,
                            "metadata" : {
                              "clipSpeedAttribute" : false,
                              "default-height" : 769.0,
                              "default-scale0" : 1.0,
                              "default-scale1" : 1.0,
                              "default-translation0" : 0.0,
                              "default-translation1" : -0.5,
                              "default-width" : 1280.0
                            },
                            "animationTracks" : {

                            }
                          }
                        ],
                          "ident" : "",
                          "audioMuted" : false,
                          "videoHidden" : false,
                          "magnetic" : false,
                          "matte" : 0,
                          "solo" : false,
                          "metadata" : {
                            "IsLocked" : "False",
                            "WinTrackHeight" : "56"
                          }
                      },
                      {
                        "trackIndex" : 2,
                        "medias" : [
                          {
                            "id" : 51,
                            "_type" : "IMFile",
                            "src" : 9,
                            "trackNumber" : 0,
                            "trimStartSum" : 0,
                            "attributes" : {
                              "ident" : "yellow_background"
                            },
                            "parameters" : {
                              "translation0" : {
                                "type" : "double",
                                "defaultValue" : 168.393330226382,
                                "interp" : "eioe"
                              },
                              "translation1" : {
                                "type" : "double",
                                "defaultValue" : -333.438677104797,
                                "interp" : "eioe"
                              },
                              "rotation2" : {
                                "type" : "double",
                                "defaultValue" : 0.706968159564296,
                                "interp" : "eioe"
                              },
                              "scale0" : {
                                "type" : "double",
                                "defaultValue" : 0.0485209553770944,
                                "interp" : "eioe"
                              },
                              "scale1" : {
                                "type" : "double",
                                "defaultValue" : 0.0649367535672276,
                                "interp" : "eioe"
                              },
                              "sourceCrop0" : {
                                "type" : "double",
                                "defaultValue" : 0.0,
                                "interp" : "eioe"
                              },
                              "sourceCrop1" : {
                                "type" : "double",
                                "defaultValue" : 0.0,
                                "interp" : "eioe"
                              },
                              "sourceCrop2" : {
                                "type" : "double",
                                "defaultValue" : 0.0,
                                "interp" : "eioe"
                              },
                              "sourceCrop3" : {
                                "type" : "double",
                                "defaultValue" : 0.0,
                                "interp" : "eioe"
                              },
                              "geometryCrop0" : {
                                "type" : "double",
                                "defaultValue" : 0.0,
                                "interp" : "eioe"
                              },
                              "geometryCrop1" : {
                                "type" : "double",
                                "defaultValue" : 0.0,
                                "interp" : "eioe"
                              },
                              "geometryCrop2" : {
                                "type" : "double",
                                "defaultValue" : 0.0,
                                "interp" : "eioe"
                              },
                              "geometryCrop3" : {
                                "type" : "double",
                                "defaultValue" : 0.0,
                                "interp" : "eioe"
                              }
                            },
                            "effects" : [

                            ],
                            "start" : 0,
                            "duration" : 928,
                            "mediaStart" : 0,
                            "mediaDuration" : 1,
                            "scalar" : 1,
                            "metadata" : {
                              "clipSpeedAttribute" : false,
                              "default-height" : 769.0,
                              "default-rotation2" : 0.0,
                              "default-scale0" : 1.0,
                              "default-scale1" : 1.0,
                              "default-translation0" : 0.0,
                              "default-translation1" : -0.5,
                              "default-width" : 1280.0
                            },
                            "animationTracks" : {

                            }
                          }
                        ],
                          "ident" : "",
                          "audioMuted" : false,
                          "videoHidden" : false,
                          "magnetic" : false,
                          "matte" : 0,
                          "solo" : false,
                          "metadata" : {
                            "IsLocked" : "False",
                            "WinTrackHeight" : "56"
                          }
                      },
                      {
                        "trackIndex" : 3,
                        "medias" : [
                          {
                            "id" : 52,
                            "_type" : "IMFile",
                            "src" : 9,
                            "trackNumber" : 0,
                            "trimStartSum" : 0,
                            "attributes" : {
                              "ident" : "yellow_background"
                            },
                            "parameters" : {
                              "translation0" : {
                                "type" : "double",
                                "defaultValue" : -203.362527732643,
                                "interp" : "eioe"
                              },
                              "translation1" : {
                                "type" : "double",
                                "defaultValue" : -336.163223874672,
                                "interp" : "eioe"
                              },
                              "rotation2" : {
                                "type" : "double",
                                "defaultValue" : -0.658813936823206,
                                "interp" : "eioe"
                              },
                              "scale0" : {
                                "type" : "double",
                                "defaultValue" : 0.043403232341029,
                                "interp" : "eioe"
                              },
                              "scale1" : {
                                "type" : "double",
                                "defaultValue" : 0.0580875825845971,
                                "interp" : "eioe"
                              },
                              "sourceCrop0" : {
                                "type" : "double",
                                "defaultValue" : 0.0,
                                "interp" : "eioe"
                              },
                              "sourceCrop1" : {
                                "type" : "double",
                                "defaultValue" : 0.0,
                                "interp" : "eioe"
                              },
                              "sourceCrop2" : {
                                "type" : "double",
                                "defaultValue" : 0.0,
                                "interp" : "eioe"
                              },
                              "sourceCrop3" : {
                                "type" : "double",
                                "defaultValue" : 0.0,
                                "interp" : "eioe"
                              },
                              "geometryCrop0" : {
                                "type" : "double",
                                "defaultValue" : 0.0,
                                "interp" : "eioe"
                              },
                              "geometryCrop1" : {
                                "type" : "double",
                                "defaultValue" : 0.0,
                                "interp" : "eioe"
                              },
                              "geometryCrop2" : {
                                "type" : "double",
                                "defaultValue" : 0.0,
                                "interp" : "eioe"
                              },
                              "geometryCrop3" : {
                                "type" : "double",
                                "defaultValue" : 0.0,
                                "interp" : "eioe"
                              }
                            },
                            "effects" : [

                            ],
                            "start" : 0,
                            "duration" : 928,
                            "mediaStart" : 0,
                            "mediaDuration" : 1,
                            "scalar" : 1,
                            "metadata" : {
                              "clipSpeedAttribute" : false,
                              "default-height" : 769.0,
                              "default-rotation2" : 0.0,
                              "default-scale0" : 1.0,
                              "default-scale1" : 1.0,
                              "default-translation0" : 0.0,
                              "default-translation1" : -0.5,
                              "default-width" : 1280.0
                            },
                            "animationTracks" : {

                            }
                          }
                        ],
                          "ident" : "",
                          "audioMuted" : false,
                          "videoHidden" : false,
                          "magnetic" : false,
                          "matte" : 0,
                          "solo" : false,
                          "metadata" : {
                            "IsLocked" : "False",
                            "WinTrackHeight" : "56"
                          }
                      },
                      {
                        "trackIndex" : 4,
                        "medias" : [
                          {
                            "id" : 53,
                            "_type" : "IMFile",
                            "src" : 9,
                            "trackNumber" : 0,
                            "trimStartSum" : 0,
                            "attributes" : {
                              "ident" : "yellow_background"
                            },
                            "parameters" : {
                              "translation0" : {
                                "type" : "double",
                                "defaultValue" : 165.468844816376,
                                "interp" : "eioe"
                              },
                              "translation1" : {
                                "type" : "double",
                                "defaultValue" : 336.209325144936,
                                "interp" : "eioe"
                              },
                              "rotation2" : {
                                "type" : "double",
                                "defaultValue" : -0.74572762865246,
                                "interp" : "eioe"
                              },
                              "scale0" : {
                                "type" : "double",
                                "defaultValue" : 0.043403232341029,
                                "interp" : "eioe"
                              },
                              "scale1" : {
                                "type" : "double",
                                "defaultValue" : 0.0580875825845971,
                                "interp" : "eioe"
                              },
                              "sourceCrop0" : {
                                "type" : "double",
                                "defaultValue" : 0.0,
                                "interp" : "eioe"
                              },
                              "sourceCrop1" : {
                                "type" : "double",
                                "defaultValue" : 0.0,
                                "interp" : "eioe"
                              },
                              "sourceCrop2" : {
                                "type" : "double",
                                "defaultValue" : 0.0,
                                "interp" : "eioe"
                              },
                              "sourceCrop3" : {
                                "type" : "double",
                                "defaultValue" : 0.0,
                                "interp" : "eioe"
                              },
                              "geometryCrop0" : {
                                "type" : "double",
                                "defaultValue" : 0.0,
                                "interp" : "eioe"
                              },
                              "geometryCrop1" : {
                                "type" : "double",
                                "defaultValue" : 0.0,
                                "interp" : "eioe"
                              },
                              "geometryCrop2" : {
                                "type" : "double",
                                "defaultValue" : 0.0,
                                "interp" : "eioe"
                              },
                              "geometryCrop3" : {
                                "type" : "double",
                                "defaultValue" : 0.0,
                                "interp" : "eioe"
                              }
                            },
                            "effects" : [

                            ],
                            "start" : 0,
                            "duration" : 928,
                            "mediaStart" : 0,
                            "mediaDuration" : 1,
                            "scalar" : 1,
                            "metadata" : {
                              "clipSpeedAttribute" : false,
                              "default-height" : 769.0,
                              "default-rotation2" : 0.0,
                              "default-scale0" : 1.0,
                              "default-scale1" : 1.0,
                              "default-translation0" : 0.0,
                              "default-translation1" : -0.5,
                              "default-width" : 1280.0
                            },
                            "animationTracks" : {

                            }
                          }
                        ],
                          "ident" : "",
                          "audioMuted" : false,
                          "videoHidden" : false,
                          "magnetic" : false,
                          "matte" : 0,
                          "solo" : false,
                          "metadata" : {
                            "IsLocked" : "False",
                            "WinTrackHeight" : "56"
                          }
                      },
                      {
                        "trackIndex" : 5,
                        "medias" : [
                          {
                            "id" : 54,
                            "_type" : "IMFile",
                            "src" : 9,
                            "trackNumber" : 0,
                            "trimStartSum" : 0,
                            "attributes" : {
                              "ident" : "yellow_background"
                            },
                            "parameters" : {
                              "translation0" : {
                                "type" : "double",
                                "defaultValue" : -208.435917088386,
                                "interp" : "eioe"
                              },
                              "translation1" : {
                                "type" : "double",
                                "defaultValue" : 336.590277525889,
                                "interp" : "eioe"
                              },
                              "rotation2" : {
                                "type" : "double",
                                "defaultValue" : 0.752235389913766,
                                "interp" : "eioe"
                              },
                              "scale0" : {
                                "type" : "double",
                                "defaultValue" : 0.043403232341029,
                                "interp" : "eioe"
                              },
                              "scale1" : {
                                "type" : "double",
                                "defaultValue" : 0.0580875825845971,
                                "interp" : "eioe"
                              },
                              "sourceCrop0" : {
                                "type" : "double",
                                "defaultValue" : 0.0,
                                "interp" : "eioe"
                              },
                              "sourceCrop1" : {
                                "type" : "double",
                                "defaultValue" : 0.0,
                                "interp" : "eioe"
                              },
                              "sourceCrop2" : {
                                "type" : "double",
                                "defaultValue" : 0.0,
                                "interp" : "eioe"
                              },
                              "sourceCrop3" : {
                                "type" : "double",
                                "defaultValue" : 0.0,
                                "interp" : "eioe"
                              },
                              "geometryCrop0" : {
                                "type" : "double",
                                "defaultValue" : 0.0,
                                "interp" : "eioe"
                              },
                              "geometryCrop1" : {
                                "type" : "double",
                                "defaultValue" : 0.0,
                                "interp" : "eioe"
                              },
                              "geometryCrop2" : {
                                "type" : "double",
                                "defaultValue" : 0.0,
                                "interp" : "eioe"
                              },
                              "geometryCrop3" : {
                                "type" : "double",
                                "defaultValue" : 0.0,
                                "interp" : "eioe"
                              }
                            },
                            "effects" : [

                            ],
                            "start" : 0,
                            "duration" : 928,
                            "mediaStart" : 0,
                            "mediaDuration" : 1,
                            "scalar" : 1,
                            "metadata" : {
                              "clipSpeedAttribute" : false,
                              "default-height" : 769.0,
                              "default-rotation2" : 0.0,
                              "default-scale0" : 1.0,
                              "default-scale1" : 1.0,
                              "default-translation0" : 0.0,
                              "default-translation1" : -0.5,
                              "default-width" : 1280.0
                            },
                            "animationTracks" : {

                            }
                          }
                        ],
                          "ident" : "",
                          "audioMuted" : false,
                          "videoHidden" : false,
                          "magnetic" : false,
                          "matte" : 0,
                          "solo" : false,
                          "metadata" : {
                            "IsLocked" : "False",
                            "WinTrackHeight" : "56"
                          }
                      }
                    ],
                    "attributes" : {
                      "ident" : "Yellow cover behing mockup",
                      "widthAttr" : 480.0,
                      "heightAttr" : 770.0,
                      "gain" : 1.0,
                      "mixToMono" : false,
                      "assetProperties" : [
                      ]
                    },
                    "effects" : [

                    ],
                    "start" : 0,
                    "duration" : 928,
                    "mediaStart" : 0.0,
                    "mediaDuration" : 928.0,
                    "scalar" : 1,
                    "metadata" : {
                      "clipSpeedAttribute" : false
                    },
                    "animationTracks" : {

                    }
                  }
                ]
              },
              {
                "trackIndex" : 5,
                "medias" : [
                  {
                    "id" : 55,
                    "_type" : "IMFile",
                    "src" : 4,
                    "trackNumber" : 0,
                    "trimStartSum" : 0,
                    "attributes" : {
                      "ident" : "phone mockp"
                    },
                    "parameters" : {
                      "translation0" : {
                        "type" : "double",
                        "defaultValue" : -421.585172915439,
                        "interp" : "eioe"
                      },
                      "translation1" : {
                        "type" : "double",
                        "defaultValue" : -5.83333333333339,
                        "interp" : "eioe"
                      },
                      "scale0" : {
                        "type" : "double",
                        "defaultValue" : 1.1651295564339,
                        "interp" : "eioe"
                      },
                      "scale1" : {
                        "type" : "double",
                        "defaultValue" : 0.965908119658119,
                        "interp" : "eioe"
                      },
                      "sourceCrop0" : {
                        "type" : "double",
                        "defaultValue" : 0.0,
                        "interp" : "eioe"
                      },
                      "sourceCrop1" : {
                        "type" : "double",
                        "defaultValue" : 0.0,
                        "interp" : "eioe"
                      },
                      "sourceCrop2" : {
                        "type" : "double",
                        "defaultValue" : 0.0,
                        "interp" : "eioe"
                      },
                      "sourceCrop3" : {
                        "type" : "double",
                        "defaultValue" : 0.0,
                        "interp" : "eioe"
                      },
                      "geometryCrop0" : {
                        "type" : "double",
                        "defaultValue" : 0.0,
                        "interp" : "eioe"
                      },
                      "geometryCrop1" : {
                        "type" : "double",
                        "defaultValue" : 0.0,
                        "interp" : "eioe"
                      },
                      "geometryCrop2" : {
                        "type" : "double",
                        "defaultValue" : 0.0,
                        "interp" : "eioe"
                      },
                      "geometryCrop3" : {
                        "type" : "double",
                        "defaultValue" : 0.0,
                        "interp" : "eioe"
                      }
                    },
                    "effects" : [

                    ],
                    "start" : 0,
                    "duration" : 928,
                    "mediaStart" : 0,
                    "mediaDuration" : 1,
                    "scalar" : 1,
                    "metadata" : {
                      "clipSpeedAttribute" : false,
                      "default-height" : 715.0,
                      "default-scale0" : 1.0,
                      "default-scale1" : 1.0,
                      "default-translation0" : -0.5,
                      "default-translation1" : -0.5,
                      "default-width" : 345.0
                    },
                    "animationTracks" : {

                    }
                  }
                ]
              },
              {
                "trackIndex" : 6,
                "medias" : [
                  {
                    "id" : 56,
                    "_type" : "IMFile",
                    "src" : 5,
                    "trackNumber" : 0,
                    "trimStartSum" : 0,
                    "attributes" : {
                      "ident" : "free-sample"
                    },
                    "parameters" : {
                      "translation0" : {
                        "type" : "double",
                        "defaultValue" : 499.5,
                        "interp" : "eioe",
                        "keyframes" : [
                          {
                            "endTime" : 271,
                            "time" : 241,
                            "value" : 499.5,
                            "duration" : 30
                          },
                          {
                            "endTime" : 361,
                            "time" : 331,
                            "value" : 499.5,
                            "duration" : 30
                          }
                        ]
                      },
                      "translation1" : {
                        "type" : "double",
                        "defaultValue" : 313.333333333333,
                        "interp" : "eioe",
                        "keyframes" : [
                          {
                            "endTime" : 271,
                            "time" : 241,
                            "value" : 313.333333333333,
                            "duration" : 30
                          },
                          {
                            "endTime" : 361,
                            "time" : 331,
                            "value" : 313.333333333333,
                            "duration" : 30
                          }
                        ]
                      },
                      "rotation2" : {
                        "type" : "double",
                        "defaultValue" : 0.0,
                        "interp" : "eioe",
                        "keyframes" : [
                          {
                            "endTime" : 361,
                            "time" : 331,
                            "value" : 0.0,
                            "duration" : 30
                          }
                        ]
                      },
                      "scale0" : {
                        "type" : "double",
                        "defaultValue" : 1.0,
                        "interp" : "eioe",
                        "keyframes" : [
                          {
                            "endTime" : 30,
                            "time" : 0,
                            "value" : 1.25,
                            "duration" : 30
                          },
                          {
                            "endTime" : 60,
                            "time" : 30,
                            "value" : 1.0,
                            "duration" : 30
                          },
                          {
                            "endTime" : 91,
                            "time" : 61,
                            "value" : 1.25,
                            "duration" : 30
                          },
                          {
                            "endTime" : 121,
                            "time" : 91,
                            "value" : 1.0,
                            "duration" : 30
                          },
                          {
                            "endTime" : 151,
                            "time" : 121,
                            "value" : 1.25,
                            "duration" : 30
                          },
                          {
                            "endTime" : 181,
                            "time" : 151,
                            "value" : 1.0,
                            "duration" : 30
                          },
                          {
                            "endTime" : 211,
                            "time" : 181,
                            "value" : 1.25,
                            "duration" : 30
                          },
                          {
                            "endTime" : 241,
                            "time" : 211,
                            "value" : 1.0,
                            "duration" : 30
                          },
                          {
                            "endTime" : 271,
                            "time" : 241,
                            "value" : 1.25,
                            "duration" : 30
                          },
                          {
                            "endTime" : 301,
                            "time" : 271,
                            "value" : 1.0,
                            "duration" : 30
                          },
                          {
                            "endTime" : 331,
                            "time" : 301,
                            "value" : 1.25,
                            "duration" : 30
                          },
                          {
                            "endTime" : 361,
                            "time" : 331,
                            "value" : 1.0,
                            "duration" : 30
                          },
                          {
                            "endTime" : 391,
                            "time" : 361,
                            "value" : 1.25,
                            "duration" : 30
                          },
                          {
                            "endTime" : 421,
                            "time" : 391,
                            "value" : 1.0,
                            "duration" : 30
                          },
                          {
                            "endTime" : 451,
                            "time" : 421,
                            "value" : 1.25,
                            "duration" : 30
                          },
                          {
                            "endTime" : 481,
                            "time" : 451,
                            "value" : 1.0,
                            "duration" : 30
                          },
                          {
                            "endTime" : 511,
                            "time" : 481,
                            "value" : 1.25,
                            "duration" : 30
                          },
                          {
                            "endTime" : 542,
                            "time" : 512,
                            "value" : 1.0,
                            "duration" : 30
                          },
                          {
                            "endTime" : 573,
                            "time" : 543,
                            "value" : 1.25,
                            "duration" : 30
                          },
                          {
                            "endTime" : 603,
                            "time" : 573,
                            "value" : 1.0,
                            "duration" : 30
                          },
                          {
                            "endTime" : 633,
                            "time" : 603,
                            "value" : 1.25,
                            "duration" : 30
                          },
                          {
                            "endTime" : 663,
                            "time" : 633,
                            "value" : 1.0,
                            "duration" : 30
                          },
                          {
                            "endTime" : 693,
                            "time" : 663,
                            "value" : 1.25,
                            "duration" : 30
                          },
                          {
                            "endTime" : 723,
                            "time" : 693,
                            "value" : 1.0,
                            "duration" : 30
                          },
                          {
                            "endTime" : 753,
                            "time" : 723,
                            "value" : 1.25,
                            "duration" : 30
                          },
                          {
                            "endTime" : 783,
                            "time" : 753,
                            "value" : 1.0,
                            "duration" : 30
                          },
                          {
                            "endTime" : 813,
                            "time" : 783,
                            "value" : 1.25,
                            "duration" : 30
                          },
                          {
                            "endTime" : 843,
                            "time" : 813,
                            "value" : 1.0,
                            "duration" : 30
                          },
                          {
                            "endTime" : 873,
                            "time" : 843,
                            "value" : 1.25,
                            "duration" : 30
                          },
                          {
                            "endTime" : 903,
                            "time" : 873,
                            "value" : 1.0,
                            "duration" : 30
                          },
                          {
                            "endTime" : 928,
                            "time" : 903,
                            "value" : 1.25,
                            "duration" : 25
                          }
                        ]
                      },
                      "scale1" : {
                        "type" : "double",
                        "defaultValue" : 1.0,
                        "interp" : "eioe",
                        "keyframes" : [
                          {
                            "endTime" : 30,
                            "time" : 0,
                            "value" : 1.25,
                            "duration" : 30
                          },
                          {
                            "endTime" : 60,
                            "time" : 30,
                            "value" : 1.0,
                            "duration" : 30
                          },
                          {
                            "endTime" : 91,
                            "time" : 61,
                            "value" : 1.25,
                            "duration" : 30
                          },
                          {
                            "endTime" : 121,
                            "time" : 91,
                            "value" : 1.0,
                            "duration" : 30
                          },
                          {
                            "endTime" : 151,
                            "time" : 121,
                            "value" : 1.25,
                            "duration" : 30
                          },
                          {
                            "endTime" : 181,
                            "time" : 151,
                            "value" : 1.0,
                            "duration" : 30
                          },
                          {
                            "endTime" : 211,
                            "time" : 181,
                            "value" : 1.25,
                            "duration" : 30
                          },
                          {
                            "endTime" : 241,
                            "time" : 211,
                            "value" : 1.0,
                            "duration" : 30
                          },
                          {
                            "endTime" : 271,
                            "time" : 241,
                            "value" : 1.25,
                            "duration" : 30
                          },
                          {
                            "endTime" : 301,
                            "time" : 271,
                            "value" : 1.0,
                            "duration" : 30
                          },
                          {
                            "endTime" : 331,
                            "time" : 301,
                            "value" : 1.25,
                            "duration" : 30
                          },
                          {
                            "endTime" : 361,
                            "time" : 331,
                            "value" : 1.0,
                            "duration" : 30
                          },
                          {
                            "endTime" : 391,
                            "time" : 361,
                            "value" : 1.25,
                            "duration" : 30
                          },
                          {
                            "endTime" : 421,
                            "time" : 391,
                            "value" : 1.0,
                            "duration" : 30
                          },
                          {
                            "endTime" : 451,
                            "time" : 421,
                            "value" : 1.25,
                            "duration" : 30
                          },
                          {
                            "endTime" : 481,
                            "time" : 451,
                            "value" : 1.0,
                            "duration" : 30
                          },
                          {
                            "endTime" : 511,
                            "time" : 481,
                            "value" : 1.25,
                            "duration" : 30
                          },
                          {
                            "endTime" : 542,
                            "time" : 512,
                            "value" : 1.0,
                            "duration" : 30
                          },
                          {
                            "endTime" : 573,
                            "time" : 543,
                            "value" : 1.25,
                            "duration" : 30
                          },
                          {
                            "endTime" : 603,
                            "time" : 573,
                            "value" : 1.0,
                            "duration" : 30
                          },
                          {
                            "endTime" : 633,
                            "time" : 603,
                            "value" : 1.25,
                            "duration" : 30
                          },
                          {
                            "endTime" : 663,
                            "time" : 633,
                            "value" : 1.0,
                            "duration" : 30
                          },
                          {
                            "endTime" : 693,
                            "time" : 663,
                            "value" : 1.25,
                            "duration" : 30
                          },
                          {
                            "endTime" : 723,
                            "time" : 693,
                            "value" : 1.0,
                            "duration" : 30
                          },
                          {
                            "endTime" : 753,
                            "time" : 723,
                            "value" : 1.25,
                            "duration" : 30
                          },
                          {
                            "endTime" : 783,
                            "time" : 753,
                            "value" : 1.0,
                            "duration" : 30
                          },
                          {
                            "endTime" : 813,
                            "time" : 783,
                            "value" : 1.25,
                            "duration" : 30
                          },
                          {
                            "endTime" : 843,
                            "time" : 813,
                            "value" : 1.0,
                            "duration" : 30
                          },
                          {
                            "endTime" : 873,
                            "time" : 843,
                            "value" : 1.25,
                            "duration" : 30
                          },
                          {
                            "endTime" : 903,
                            "time" : 873,
                            "value" : 1.0,
                            "duration" : 30
                          },
                          {
                            "endTime" : 928,
                            "time" : 903,
                            "value" : 1.25,
                            "duration" : 25
                          }
                        ]
                      },
                      "sourceCrop0" : {
                        "type" : "double",
                        "defaultValue" : 0.0,
                        "interp" : "eioe"
                      },
                      "sourceCrop1" : {
                        "type" : "double",
                        "defaultValue" : 0.0,
                        "interp" : "eioe"
                      },
                      "sourceCrop2" : {
                        "type" : "double",
                        "defaultValue" : 0.0,
                        "interp" : "eioe"
                      },
                      "sourceCrop3" : {
                        "type" : "double",
                        "defaultValue" : 0.0,
                        "interp" : "eioe"
                      },
                      "geometryCrop0" : {
                        "type" : "double",
                        "defaultValue" : 0.0,
                        "interp" : "eioe"
                      },
                      "geometryCrop1" : {
                        "type" : "double",
                        "defaultValue" : 0.0,
                        "interp" : "eioe"
                      },
                      "geometryCrop2" : {
                        "type" : "double",
                        "defaultValue" : 0.0,
                        "interp" : "eioe"
                      },
                      "geometryCrop3" : {
                        "type" : "double",
                        "defaultValue" : 0.0,
                        "interp" : "eioe"
                      }
                    },
                    "effects" : [

                    ],
                    "start" : 0,
                    "duration" : 928,
                    "mediaStart" : 0,
                    "mediaDuration" : 1,
                    "scalar" : 1,
                    "metadata" : {
                      "clipSpeedAttribute" : false,
                      "default-height" : 202.0,
                      "default-rotation2" : 0.0,
                      "default-scale0" : 1.0,
                      "default-scale1" : 1.0,
                      "default-translation0" : -0.5,
                      "default-translation1" : 0.0,
                      "default-width" : 347.0
                    },
                    "animationTracks" : {
                      "visual" : [
                        {
                          "endTime" : 30,
                          "duration" : 30,
                          "range" : [ 0, 30]
                        },
                        {
                          "endTime" : 60,
                          "duration" : 30,
                          "range" : [ 30, 30]
                        },
                        {
                          "endTime" : 91,
                          "duration" : 30,
                          "range" : [ 61, 30]
                        },
                        {
                          "endTime" : 121,
                          "duration" : 30,
                          "range" : [ 91, 30]
                        },
                        {
                          "endTime" : 151,
                          "duration" : 30,
                          "range" : [ 121, 30]
                        },
                        {
                          "endTime" : 181,
                          "duration" : 30,
                          "range" : [ 151, 30]
                        },
                        {
                          "endTime" : 211,
                          "duration" : 30,
                          "range" : [ 181, 30]
                        },
                        {
                          "endTime" : 241,
                          "duration" : 30,
                          "range" : [ 211, 30]
                        },
                        {
                          "endTime" : 271,
                          "duration" : 30,
                          "range" : [ 241, 30]
                        },
                        {
                          "endTime" : 301,
                          "duration" : 30,
                          "range" : [ 271, 30]
                        },
                        {
                          "endTime" : 331,
                          "duration" : 30,
                          "range" : [ 301, 30]
                        },
                        {
                          "endTime" : 361,
                          "duration" : 30,
                          "range" : [ 331, 30]
                        },
                        {
                          "endTime" : 391,
                          "duration" : 30,
                          "range" : [ 361, 30]
                        },
                        {
                          "endTime" : 421,
                          "duration" : 30,
                          "range" : [ 391, 30]
                        },
                        {
                          "endTime" : 451,
                          "duration" : 30,
                          "range" : [ 421, 30]
                        },
                        {
                          "endTime" : 481,
                          "duration" : 30,
                          "range" : [ 451, 30]
                        },
                        {
                          "endTime" : 511,
                          "duration" : 30,
                          "range" : [ 481, 30]
                        },
                        {
                          "endTime" : 542,
                          "duration" : 30,
                          "range" : [ 512, 30]
                        },
                        {
                          "endTime" : 573,
                          "duration" : 30,
                          "range" : [ 543, 30]
                        },
                        {
                          "endTime" : 603,
                          "duration" : 30,
                          "range" : [ 573, 30]
                        },
                        {
                          "endTime" : 633,
                          "duration" : 30,
                          "range" : [ 603, 30]
                        },
                        {
                          "endTime" : 663,
                          "duration" : 30,
                          "range" : [ 633, 30]
                        },
                        {
                          "endTime" : 693,
                          "duration" : 30,
                          "range" : [ 663, 30]
                        },
                        {
                          "endTime" : 723,
                          "duration" : 30,
                          "range" : [ 693, 30]
                        },
                        {
                          "endTime" : 753,
                          "duration" : 30,
                          "range" : [ 723, 30]
                        },
                        {
                          "endTime" : 783,
                          "duration" : 30,
                          "range" : [ 753, 30]
                        },
                        {
                          "endTime" : 813,
                          "duration" : 30,
                          "range" : [ 783, 30]
                        },
                        {
                          "endTime" : 843,
                          "duration" : 30,
                          "range" : [ 813, 30]
                        },
                        {
                          "endTime" : 873,
                          "duration" : 30,
                          "range" : [ 843, 30]
                        },
                        {
                          "endTime" : 903,
                          "duration" : 30,
                          "range" : [ 873, 30]
                        },
                        {
                          "endTime" : 928,
                          "duration" : 25,
                          "range" : [ 903, 25]
                        }
                      ]
                    }
                  }
                ]
              },
              {
                "trackIndex" : 7,
                "medias" : [
                  {
                    "id" : 57,
                    "_type" : "IMFile",
                    "src" : 18,
                    "trackNumber" : 0,
                    "trimStartSum" : 0,
                    "attributes" : {
                      "ident" : "Capture"
                    },
                    "parameters" : {
                      "translation0" : {
                        "type" : "double",
                        "defaultValue" : 1.20085887445856,
                        "interp" : "eioe"
                      },
                      "translation1" : {
                        "type" : "double",
                        "defaultValue" : 0.722391666666338,
                        "interp" : "eioe"
                      },
                      "scale0" : {
                        "type" : "double",
                        "defaultValue" : 1.62463027361881,
                        "interp" : "eioe"
                      },
                      "scale1" : {
                        "type" : "double",
                        "defaultValue" : 1.67692583485125,
                        "interp" : "eioe"
                      },
                      "sourceCrop0" : {
                        "type" : "double",
                        "defaultValue" : 0.0,
                        "interp" : "eioe"
                      },
                      "sourceCrop1" : {
                        "type" : "double",
                        "defaultValue" : 0.0,
                        "interp" : "eioe"
                      },
                      "sourceCrop2" : {
                        "type" : "double",
                        "defaultValue" : 0.0,
                        "interp" : "eioe"
                      },
                      "sourceCrop3" : {
                        "type" : "double",
                        "defaultValue" : 0.0,
                        "interp" : "eioe"
                      },
                      "geometryCrop0" : {
                        "type" : "double",
                        "defaultValue" : 0.0,
                        "interp" : "eioe"
                      },
                      "geometryCrop1" : {
                        "type" : "double",
                        "defaultValue" : 0.0,
                        "interp" : "eioe"
                      },
                      "geometryCrop2" : {
                        "type" : "double",
                        "defaultValue" : 0.0,
                        "interp" : "eioe"
                      },
                      "geometryCrop3" : {
                        "type" : "double",
                        "defaultValue" : 0.0,
                        "interp" : "eioe"
                      }
                    },
                    "effects" : [

                    ],
                    "start" : 914,
                    "duration" : 14,
                    "mediaStart" : 0,
                    "mediaDuration" : 1,
                    "scalar" : 1,
                    "metadata" : {
                      "clipSpeedAttribute" : false,
                      "default-height" : 549.0,
                      "default-scale0" : 1.0,
                      "default-scale1" : 1.0,
                      "default-translation0" : 0.0,
                      "default-translation1" : -0.5,
                      "default-width" : 942.0
                    },
                    "animationTracks" : {

                    }
                  }
                ],
                "transitions" : [
                  {
                    "name" : "Fade",
                    "duration" : 14,
                    "rightMedia" : 57,
                    "attributes" : {
                      "bypass" : false,
                      "reverse" : false,
                      "trivial" : false,
                      "useAudioPreRoll" : true,
                      "useVisualPreRoll" : true
                    }

                  }
                ]
              },
              {
                "trackIndex" : 8,
                "medias" : [
                ]
              }            ]
          }
        }
      ]
    },
    "trackAttributes" : [
      {
        "ident" : "",
        "audioMuted" : false,
        "videoHidden" : false,
        "magnetic" : false,
        "matte" : 0,
        "solo" : false,
        "metadata" : {
          "IsLocked" : "False",
          "WinTrackHeight" : "56"
        }
      },
      {
        "ident" : "",
        "audioMuted" : false,
        "videoHidden" : false,
        "magnetic" : false,
        "matte" : 0,
        "solo" : false,
        "metadata" : {
          "IsLocked" : "False",
          "WinTrackHeight" : "56"
        }
      },
      {
        "ident" : "",
        "audioMuted" : false,
        "videoHidden" : false,
        "magnetic" : false,
        "matte" : 0,
        "solo" : false,
        "metadata" : {
          "IsLocked" : "False",
          "WinTrackHeight" : "56"
        }
      },
      {
        "ident" : "",
        "audioMuted" : false,
        "videoHidden" : false,
        "magnetic" : false,
        "matte" : 0,
        "solo" : false,
        "metadata" : {
          "IsLocked" : "False",
          "WinTrackHeight" : "56"
        }
      },
      {
        "ident" : "",
        "audioMuted" : false,
        "videoHidden" : false,
        "magnetic" : false,
        "matte" : 0,
        "solo" : false,
        "metadata" : {
          "IsLocked" : "False",
          "WinTrackHeight" : "56"
        }
      },
      {
        "ident" : "",
        "audioMuted" : false,
        "videoHidden" : false,
        "magnetic" : false,
        "matte" : 0,
        "solo" : false,
        "metadata" : {
          "IsLocked" : "False",
          "WinTrackHeight" : "56"
        }
      },
      {
        "ident" : "",
        "audioMuted" : false,
        "videoHidden" : false,
        "magnetic" : false,
        "matte" : 0,
        "solo" : false,
        "metadata" : {
          "IsLocked" : "False",
          "WinTrackHeight" : "56"
        }
      },
      {
        "ident" : "",
        "audioMuted" : false,
        "videoHidden" : false,
        "magnetic" : false,
        "matte" : 0,
        "solo" : false,
        "metadata" : {
          "IsLocked" : "False",
          "WinTrackHeight" : "56"
        }
      },
      {
        "ident" : "",
        "audioMuted" : false,
        "videoHidden" : false,
        "magnetic" : false,
        "matte" : 0,
        "solo" : false,
        "metadata" : {
          "IsLocked" : "False",
          "WinTrackHeight" : "56"
        }
      }
    ],
    "captionAttributes" : {
      "enabled" : true,
      "fontName" : "Arial",
      "fontSize" : 45,
      "backgroundColor" : [ 0, 0, 0, 191],
      "foregroundColor" : [ 255, 255, 255, 255],
      "lang" : "en",
      "alignment" : 0,
      "defaultFontSize" : true,
      "opacity" : 0.5,
      "backgroundEnabled" : true,
      "backgroundOnlyAroundText" : true
    },
    "gain" : 1.0,
    "legacyAttenuateAudioMix" : false,
    "backgroundColor" : [ 0, 0, 0, 255]
  },
  "metadata" : {
    "AutoSaveFile" : "C:\\Users\\Samurai\\AppData\\Local\\TechSmith\\Camtasia Studio\\21.0\\Auto-Saves\\promotion_video21907db.autosave.tscproj",
    "CanvasZoom" : 50,
    "Date" : "2023-04-02 04:35:42 PM",
    "Fit" : 0,
    "IsAutoSave" : false,
    "IsStandalone" : true,
    "Language" : "ENU",
    "ProfileName" : "",
    "ProjectDimensionsChanged" : "1",
    "Title" : "promotion_video",
    "audioNarrationNotes" : "",
    "calloutStyle" : "Basic"
  }
}
